<svg width="5760" height="1081" viewBox="0 0 5760 1081" fill="none" xmlns="http://www.w3.org/2000/svg">
<path d="M725 977.371C725 977.371 772.126 957.975 798.587 940.619C832.817 918.167 863.047 866.618 874.456 871.585C885.865 876.552 982.382 888.202 1041.6 918.27C1083.46 939.528 1138 986.31 1138 986.31L772.917 995.25L725 977.371Z" fill="url(#paint0_linear_2090_4256)"/>
<path d="M1425 970.25L1497.5 944.75L1563 905.25L1709.5 952.25L1926 990.25L1856.5 1029.75H1474L1425 970.25Z" fill="url(#paint1_linear_2090_4256)"/>
<path d="M2575 1017.29C2575 1017.29 2620.35 1008.76 2647.5 1000.17C2674.52 991.61 2685.88 982.049 2713 973.64C2844.58 932.839 3081 1005.88 3081 1005.88L3076 1030.72L3006.5 1057.25H2624L2575 1017.29Z" fill="url(#paint2_linear_2090_4256)"/>
<path d="M5635.49 1.25012L1089 0C1089 0 1051.5 38.2501 1045.5 77.7501C1039.5 117.25 1064.47 165.25 1066.45 194.75C1068.44 224.25 1044.14 257.75 988.116 304.75C932.09 351.75 881.518 341.75 842.349 424.25C803.18 506.75 846.812 554.25 881.518 586.75C916.224 619.25 910.771 675.75 881.518 706.25C852.266 736.75 806.651 713.49 717.902 725.75C629.153 738.011 589.916 761.5 580 766C570.084 770.5 540.5 792.5 540.5 792.5C540.5 792.5 560.5 785.5 574 782.5C587.5 779.5 625.681 776.75 656.421 776.75C687.161 776.75 765.499 795.25 806.651 825.75C847.803 856.25 890.938 852.25 949.443 836.75C1007.95 821.25 1094.22 770.75 1137.85 764.75C1181.48 758.75 1218.67 759.98 1317.83 755.25C1416.99 750.521 1616.3 590.25 1651.5 572.25C1686.7 554.25 1728.35 543.25 1769 544.25C1809.66 545.25 2026.82 623.75 2097.72 632.25C2168.62 640.75 2228.62 617.75 2320.34 637.25C2412.06 656.75 2653.52 845.75 2806.23 864.75C2958.94 883.75 3285.67 810.334 3391.28 848.25C3496.89 886.167 3481.52 944.251 3551.92 972.251C3622.32 1000.25 3836.5 1075 3836.5 1075L4810.5 1073C4810.5 1073 4893.41 1051.97 4948.99 1023.75C5065.48 964.62 5169.61 1026.76 5247.99 922.25C5303.49 848.25 5333.99 692.75 5387.49 639.25C5426.5 600.242 5503.98 534.262 5635.49 442.251C5767 350.239 5755.5 1.25012 5755.5 1.25012H5635.49Z" fill="#221737"/>
<path d="M5500.67 924.708L5493.64 883.129L5485.48 922.314L5482.82 899.83L5480.75 929.421L5477.61 898.105L5474.44 932.908L5467.24 932.616L5464.98 909.364L5462.97 932.629L5459.55 893.683L5454.97 936.516L5453.29 914.411L5452.27 937.155L5448.71 908.437L5445.18 938.832L5439.44 940.19L5437.41 916.391L5435.28 942.173L5432.21 915.315L5429.43 941.562L5426.2 907.453L5421.95 945.957L5410.91 947.729L5409.35 936.105L5407.45 947.877L5405.62 941.46L5403.99 947.701L5403.34 950.651L5421.43 948.442L5509.21 927.674L5504.52 893.704L5500.67 924.708Z" fill="url(#paint3_linear_2090_4256)" fill-opacity="0.5"/>
<path d="M4939.5 1027.75H4929L4925 999.75L4921.5 1025.25L4919.5 1008.25L4916 1027.75L4914 990.75L4909 1023.75L4906 996.75L4900.5 1017.75L4889.5 1010.25L4886.5 958.25L4882.5 994.25L4877.5 946.25L4871 990.75L4870 977.25L4867 1011.75L4862.5 966.25L4856.5 1011.75H4848L4844 964.75L4840.5 983.75L4838.5 971.25L4833.5 1010.25L4830.5 956.75L4821 1011.75L4948.5 1035.25L4943 1004.75L4939.5 1027.75Z" fill="url(#paint4_linear_2090_4256)" fill-opacity="0.5"/>
<path d="M920.667 960.708L913.636 919.129L905.483 958.314L902.822 935.83L900.747 965.421L897.606 934.105L894.441 968.908L887.242 968.616L884.979 945.364L882.967 968.629L879.55 929.683L874.973 972.516L873.294 950.411L872.272 973.155L868.706 944.437L865.182 974.832L859.442 976.19L857.411 952.391L855.276 978.173L852.206 951.315L849.427 977.562L846.204 943.453L841.951 981.957L830.908 983.729L829.346 972.105L827.451 983.877L825.623 977.46L823.989 983.701L823.342 986.651L841.429 984.442L929.213 963.674L924.525 929.704L920.667 960.708Z" fill="url(#paint5_linear_2090_4256)" fill-opacity="0.5"/>
<path d="M2657.38 1024.75L2646.65 954.25L2643.19 1015.75L2640.42 980.75L2636.96 1024.75L2632.12 974.25L2630.04 1027.75L2623.12 1024.75L2619.65 987.75L2618.96 1023.25L2614.81 960.75L2610.31 1026.25L2608.58 992.25L2607.54 1026.25L2604.42 980.75L2600.27 1026.25H2594.38L2591.62 989.75L2589.88 1027.75L2587.81 985.75L2584.35 1024.75L2581.23 970.75L2575 1032.25H2665L2662.58 975.75L2657.38 1024.75Z" fill="url(#paint6_linear_2090_4256)" fill-opacity="0.5"/>
<path d="M1666.5 1003.25L1653.5 951.25L1647.5 980.25L1645 964.25L1644 977.75L1642 959.25L1637 1003.25L1631.5 952.75L1627 1006.25L1617 1003.25L1614 951.25L1610 987.25L1605 939.25L1598.5 983.75L1597.5 970.25L1594.5 1004.75L1590 959.25L1584 1004.75H1575.5L1571.5 957.75L1568 976.75L1566 964.25L1561 1003.25L1556.5 949.25L1547.5 1010.75H1677.5L1671 959.25L1666.5 1003.25Z" fill="url(#paint7_linear_2090_4256)" fill-opacity="0.5"/>
<path d="M0 896.25C0 896.25 72.952 923.25 159.976 923.25C247 923.25 328.354 896.25 336.927 896.25C345.5 896.25 632.51 965.25 643.505 966.25C654.5 967.25 703 941.75 706 944.25C709 946.75 813 976.25 858.5 971.25C904 966.25 999.5 902.25 999.5 902.25C999.5 902.25 1133 930.75 1160 932.25C1187 933.75 1302 904.75 1328.5 906.75C1355 908.75 1552.5 963.75 1615.5 975.25C1678.5 986.75 1865.5 989.25 1901.5 986.75C1937.5 984.25 2217.5 901.25 2247.5 901.75C2277.5 902.25 2480.5 988.75 2543.5 997.75C2606.5 1006.75 3130 1026.75 3130 1026.75L3824.5 1008.75C3824.5 1008.75 3947 990.75 4031 969.25C4115 947.75 4235 886.25 4296 886.25C4357 886.25 4750.5 1006.75 4770.5 1006.75C4790.5 1006.75 4830 982.25 4849 983.75C4868 985.25 4896.5 1018.75 4919.5 1018.75C4942.5 1018.75 5175.5 912.25 5175.5 912.25C5175.5 912.25 5253 974.25 5358 958.75C5463 943.25 5561 859.75 5597 863.25C5633 866.75 5760 896.25 5760 896.25V1071.25H0V896.25Z" fill="url(#paint8_linear_2090_4256)"/>
<path d="M510.501 1014.25L517.901 963.25L527.001 1023.25L532.501 996.25L536.143 1024.62L538.406 1001.36L540.418 1024.63L549.5 978.75L551.5 1026.25L556.5 973.25L564.5 1019.75L568.5 979.75L575.5 1033.84L577.181 999.453L581.434 1037.96L561.5 1033.25L541.5 1027.75L500 1015.25L504.001 989.25L510.501 1014.25Z" fill="url(#paint9_linear_2090_4256)" fill-opacity="0.5"/>
<path d="M690.377 1055.95L693.498 1029.66L698.5 1061.92L707.321 1008.45L713.5 1061.48H718L728.725 969.25L738.5 1061.48H741.21L747.452 1018.13L755.479 1062.41L757.262 1047.65L758.6 1062.41L763.059 1060.1L772.423 996.92L776.882 1032.43L784.016 986.313L792.934 1046.73L800.961 995.536L809.5 1064.25L677 1061.48L684.58 1012.6L690.377 1055.95Z" fill="url(#paint10_linear_2090_4256)"/>
<path d="M5004.38 1053.95L5007.5 1027.66L5012.5 1059.92L5021.32 1006.45L5027.5 1059.48H5032L5042.72 967.25L5052.5 1059.48H5055.21L5061.45 1016.13L5069.48 1060.41L5071.26 1045.65L5072.6 1060.41L5077.06 1058.1L5086.42 994.92L5090.88 1030.43L5098.02 984.313L5106.93 1044.73L5114.96 993.536L5123.5 1062.25L4991 1059.48L4998.58 1010.6L5004.38 1053.95Z" fill="url(#paint11_linear_2090_4256)"/>
<path d="M1120 1001.75L1130.5 931.75L1140.5 992.75L1144.5 960.75L1149.5 1001.75L1155 954.75L1159.5 1004.75L1169.5 1001.75L1174.5 964.75L1175.5 1000.25L1181.5 937.75L1188 1003.25L1190.5 969.25L1192 1003.25L1196.5 957.75L1202.5 1003.25H1211L1215 966.75L1217.5 1004.75L1220.5 962.75L1225.5 1001.75L1230 947.75L1239 1009.25H1109L1116.5 951.25L1120 1001.75Z" fill="url(#paint12_linear_2090_4256)"/>
<path d="M1753.76 997.228L1763 932.75L1775.65 992.542L1779 957.75L1782.66 1003.17L1786.5 954.75L1791.85 1008.12L1802.25 1007.2L1805 971.25L1808.42 1006.94L1812.5 946.75L1820.06 1012.39L1822 978.25L1823.98 1013.2L1828.5 968.75L1834.27 1015.31L1842.59 1017.03L1845 980.25L1848.66 1019.8L1852.5 978.25L1857.1 1018.48L1861 965.75L1868 1024.75L1884 1026.75L1886 1008.75L1889 1026.75L1891.5 1016.75L1894 1026.25L1895 1030.75L1868.81 1028.54L1741.47 1002.36L1747.5 949.75L1753.76 997.228Z" fill="url(#paint13_linear_2090_4256)"/>
<path d="M3444.7 992.75L3433.28 922.25L3429.59 983.75L3426.64 948.75L3422.96 992.75L3417.8 942.25L3415.59 995.75L3408.22 992.75L3404.53 955.75L3403.8 991.25L3399.38 928.75L3394.59 994.25L3391.64 965.75L3391.64 994.25L3388 953.75L3383.9 994.25H3377.64L3374.5 963.25L3372.84 995.75L3370.5 955.75L3366.95 992.75L3362 945.25L3356.5 999.75H3338L3336 980.25L3334 999.75L3332 988.25L3331 1000.25H3323.5L3321.5 985.25L3320 1001.25L3456 1000.25L3450.23 943.75L3444.7 992.75Z" fill="url(#paint14_linear_2090_4256)"/>
<path d="M3794.7 945.75L3783.28 875.25L3779.59 936.75L3776.64 901.75L3772.96 945.75L3767.8 895.25L3765.59 948.75L3761 954.75L3758.5 952.25L3755 917.25L3753.5 946.75L3749.5 901.75L3745 956.75L3741.64 918.75L3741 958.75L3736 931.75L3730.5 961.25L3727.5 960.25L3724 939.25L3722.5 956.75L3719.5 925.25L3715.5 965.75L3711 929.25L3705.5 965.75L3693 972.75L3690.5 945.25L3689 970.25L3687.5 971.75L3686 954.75L3684 974.25L3686 971.75L3688 975.75L3695 974.25L3806 953.25L3800.23 896.75L3794.7 945.75Z" fill="url(#paint15_linear_2090_4256)"/>
<path d="M4061 1031.25L4071.5 961.25L4081.5 1022.25L4085.5 990.25L4090.5 1031.25L4096 984.25L4100.5 1034.25L4110.5 1031.25L4115.5 994.25L4116.5 1029.75L4122.5 967.25L4129 1032.75L4131.5 998.75L4133 1032.75L4137.5 987.25L4143.5 1032.75H4152L4156 996.25L4158.5 1034.25L4161.5 992.25L4166.5 1031.25L4171 977.25L4180 1038.75H4050L4057.5 980.75L4061 1031.25Z" fill="url(#paint16_linear_2090_4256)"/>
<path d="M1906.1 1021.92C1838.52 1034.96 1689.5 960.25 1689.5 960.25C1689.5 960.25 1637.4 992.488 1612 993.75C1586.6 995.012 1371.5 970.257 1273.71 972.58C1175.92 974.904 860.5 1070.26 722.233 1057.8C583.967 1045.34 523 1022.76 433.34 991.019C343.68 959.282 284.5 926.732 244.219 919.257C203.938 911.782 0 926.732 0 926.732V1081L5760 1080V926.25C5760 926.25 5671.5 922.53 5615 926.25C5481.8 935.019 5281.5 1001.25 5281.5 1001.25C5281.5 1001.25 5034.91 1085.93 4885 1043.75C4776.78 1013.3 4675 899.25 4639 894.25C4603 889.25 4566.23 920.8 4522.5 907.25C4487.51 896.406 4446.5 852.25 4446.5 852.25C4446.5 852.25 4305 1010.75 4289.5 1009.25C4274 1007.75 4237 992.25 4217.5 992.25C4198 992.25 4064 1036.75 4014 1032.75C3964 1028.75 3840 922.757 3840 922.757C3840 922.757 3712 964.754 3682.15 966.257C3652.3 967.76 3611.67 951.757 3611.67 951.757C3611.67 951.757 3468.26 987.098 3374.4 993.257C3236.26 1002.32 3021.47 960.257 3021.47 960.257L2840.29 1007.76C2840.29 1007.76 2502.56 1054.39 2464.53 1052.76C2426.5 1051.13 2418 1052.01 2302 1001.25C2186 950.495 2022.5 908.75 2022.5 908.75C2022.5 908.75 1921 1019.04 1906.1 1021.92Z" fill="url(#paint17_linear_2090_4256)"/>
<path d="M413.913 850.743L503.05 799.885L512.593 816.077L421.793 865.127L413.913 850.743Z" fill="url(#paint18_linear_2090_4256)"/>
<rect x="520.032" y="786.032" width="26.6145" height="23.0009" transform="rotate(58.8042 520.032 786.032)" fill="url(#paint19_linear_2090_4256)"/>
<rect x="415.019" y="851.516" width="14.4664" height="12.7499" transform="rotate(60.9879 415.019 851.516)" fill="url(#paint20_linear_2090_4256)"/>
<rect x="406.35" y="861.804" width="7.18387" height="38.817" transform="rotate(60.9879 406.35 861.804)" fill="url(#paint21_linear_2090_4256)"/>
<circle cx="455.917" cy="851.775" r="7.5" fill="#221737"/>
<circle cx="455.917" cy="851.775" r="4.5" fill="url(#paint22_linear_2090_4256)"/>
<line x1="555.502" y1="1033.68" x2="485.502" y2="874.678" stroke="url(#paint23_linear_2090_4256)" stroke-width="2"/>
<line x1="469.419" y1="1039.21" x2="479.419" y2="877.213" stroke="url(#paint24_linear_2090_4256)" stroke-width="2"/>
<line x1="411.523" y1="1002.83" x2="474.523" y2="876.828" stroke="url(#paint25_linear_2090_4256)" stroke-width="2"/>
<rect x="464.417" y="867.275" width="27" height="10" fill="#221737"/>
<rect x="458.663" y="857.912" width="5" height="17.0002" transform="rotate(-38.5742 458.663 857.912)" fill="#221737"/>
<rect x="481.417" y="870.275" width="7" height="3" fill="#D9D9D9"/>
<path d="M432 990.5L507.5 1016.98L561 1032C561 1032 514.566 1035.96 490 1045.48C470.53 1053.03 443 1068.73 443 1068.73L324.5 1058.98C324.5 1058.98 352.68 1032.28 373.5 1018.98C394.699 1005.45 432 990.5 432 990.5Z" fill="url(#paint26_linear_2090_4256)"/>
<path d="M327 988L429 1006C429 1006 396.066 1020.48 371.5 1030C352.03 1037.55 324.5 1055.5 324.5 1055.5L185 1028.48C185 1028.48 238.124 1006.32 262 999.982C286.5 993.482 327 988 327 988Z" fill="url(#paint27_linear_2090_4256)"/>
<path d="M292.098 993.796L301.456 977.98L305.274 986.792C305.274 986.792 295.96 1000.54 295.084 1000.57C294.208 1000.6 283.818 1000.91 283.224 999.68C282.63 998.45 287.684 997.673 287.684 997.673L284.853 997.135C284.853 997.135 277.028 999.867 274.775 999.935C272.522 1000 272.507 999.38 272.507 999.38C272.507 999.38 279.691 993.548 281.928 992.856C284.166 992.165 292.098 993.796 292.098 993.796Z" fill="#FF8C8C"/>
<path d="M341.495 885.486C342.194 883.958 340.146 877.384 343.813 875.294C345.551 874.304 347.591 874.532 349.363 873.619C351.188 872.679 351.308 870.861 353.297 870.555C357.535 869.902 355.508 872.692 357.233 873.226C357.982 873.458 359.836 869.931 362.58 869.944C366.149 869.96 368.91 873.07 369.242 877.112C369.539 880.721 367.21 880.99 367.932 883.87C368.53 886.255 370.758 883.435 370.658 888.368C370.559 893.3 362.688 893.693 362.688 893.693C362.688 893.693 341.184 908.516 340.994 898.675C340.956 896.672 342.5 895.479 341.8 893.634C341.174 891.984 339.676 892.482 339.275 890.745C338.36 886.788 340.674 887.28 341.495 885.486Z" fill="#221737"/>
<path d="M347.568 884.807C347.568 884.807 354.16 878.779 357.65 878.711C361.14 878.643 368.007 888.473 366.779 896.228C365.552 903.982 357.223 903.753 357.223 903.753L355.686 910.799L361.593 916.124C361.593 916.124 357.232 919.254 352.013 919.243C345.626 919.228 341.871 912.382 341.871 912.382C341.871 912.382 346.64 909.57 347.198 901.162C347.756 892.754 347.198 894.706 347.198 894.706C347.198 894.706 344.027 895.188 344.772 888.264C344.929 886.798 347.849 887.033 347.849 887.033L347.568 884.807Z" fill="#FF8C8C"/>
<path d="M401.23 996.226L416 996.226C416 996.226 424.084 1000.8 427.777 1001.98C431.47 1003.16 430.8 1007.54 430.8 1007.54L401.406 1008.07L401.23 996.226Z" fill="url(#paint28_linear_2090_4256)"/>
<path d="M319.849 923.343C323.935 919.141 342.224 911.772 342.224 911.772C342.224 911.772 347.626 918.199 352.153 918.416C355.992 918.601 361.307 914.42 361.307 914.42C361.307 914.42 377.807 926.949 381.898 939.596C385.989 952.244 383.447 960.878 383.447 960.878L364.14 981.935C364.14 981.935 320.183 981.187 319.112 979.479C318.041 977.771 318.756 973.224 318.756 973.224C318.756 973.224 316.19 982.485 310.936 987.888C305.682 993.291 300.074 977.482 300.074 977.482C300.074 977.482 304.437 970.238 306.641 964.264C308.844 958.291 315.762 927.545 319.849 923.343Z" fill="#2C1973"/>
<path d="M328.552 932.581C328.552 932.581 326.929 947.969 323.741 959.072C320.553 970.176 318.133 975.07 318.133 975.07" stroke="#8680E5"/>
<path d="M322.895 928.041C322.895 928.041 323.576 928.403 324.731 930.253C325.885 932.103 326.476 933.964 326.476 933.964" stroke="#8680E5"/>
<path d="M372.783 925.495C372.783 925.495 370.99 928.543 370.742 936.021C370.494 943.5 372.08 946.685 372.08 946.685" stroke="#8680E5"/>
<path d="M390.175 1010.77L401.949 1005.19C401.949 1005.19 404.862 1008.34 407.388 1009.68C411.011 1011.6 416.787 1006.9 419.933 1010.99C423.079 1015.07 394.321 1023.44 394.321 1023.44L390.175 1010.77Z" fill="url(#paint29_linear_2090_4256)"/>
<path d="M324.348 980.159L337.88 980.536C337.88 980.536 368.349 945.053 375.064 941.813C381.778 938.572 382.37 940.432 384.642 941.639C386.914 942.845 390.978 950.879 390.978 950.879C390.978 950.879 411.564 932.959 415.689 932.345C419.813 931.731 422.45 931.721 426.269 936.516C430.088 941.31 416.444 995.949 416.444 995.949L407.993 996.102L410.329 1001.67L387.941 1012.06L381.438 991.595C381.438 991.595 364.12 1001.89 351.208 1005.24C338.296 1008.6 329.198 1003.15 326.289 996.964C323.379 990.78 324.348 980.159 324.348 980.159Z" fill="url(#paint30_linear_2090_4256)"/>
<path d="M391.532 950.246L409.726 1001.46" stroke="#221737"/>
<path d="M375.249 954.805C375.249 954.805 374.375 966.38 375.528 973.615C376.732 981.162 381.438 992.116 381.438 992.116" stroke="#221737"/>
<path d="M363.637 999.653C363.637 999.653 368.328 995.218 370.733 991.79C373.781 987.448 376.862 979.454 376.862 979.454" stroke="#221737"/>
<path d="M331.944 991.514L339.532 978.011" stroke="#221737"/>
<path d="M412.279 945.726C412.279 945.726 407.833 954.556 405.775 960.59C403.483 967.308 401.492 978.356 401.492 978.356" stroke="#221737"/>
<path d="M351.647 899.076C351.647 899.076 352.809 901.142 353.795 902.233C354.781 903.325 357 904.22 357 904.22" stroke="#D15B5B"/>
<path d="M362 887.618C362 887.618 362.031 888.567 362.703 889.919C363.375 891.271 365.28 892.816 365.28 892.816" stroke="#D15B5B"/>
<path d="M353.174 891.055C353.174 891.055 354.097 891.272 355.578 890.978C357.06 890.683 359.05 889.25 359.05 889.25" stroke="#D15B5B"/>
<path d="M363.576 887.392C363.576 887.392 363.44 887.597 363.078 887.805C362.717 888.014 361.999 888.103 361.999 888.103" stroke="#D15B5B"/>
<line y1="-0.5" x2="6.33732" y2="-0.5" transform="matrix(0.192411 0.980719 -0.973 0.233835 406.171 949.356)" stroke="#221737"/>
<path d="M346.947 881.171L349.788 877.74C349.788 877.74 353.793 879.172 353.473 881.477C353.234 883.206 352.168 884.493 350.633 884.909C349.488 885.218 348.648 885 347.843 884.184C347.038 883.368 346.947 881.171 346.947 881.171Z" fill="#221737"/>
<circle cx="1816.5" cy="352.75" r="3.5" fill="#CCC3E0"/>
<circle cx="4523.42" cy="533.665" r="7.5" transform="rotate(-162.422 4523.42 533.665)" fill="#CCC3E0"/>
<circle cx="1536.09" cy="482.342" r="4.39923" transform="rotate(146.718 1536.09 482.342)" fill="#CCC3E0"/>
<circle cx="5456.76" cy="434.067" r="5.21792" transform="rotate(-166.924 5456.76 434.067)" fill="#CCC3E0"/>
<circle cx="1729.5" cy="333.75" r="7.5" fill="#CCC3E0"/>
<circle cx="1237.09" cy="678.342" r="4.39923" transform="rotate(146.718 1237.09 678.342)" fill="#CCC3E0"/>
<circle cx="5453.42" cy="156.665" r="7.5" transform="rotate(-162.422 5453.42 156.665)" fill="url(#paint31_linear_2090_4256)"/>
<circle cx="1889.5" cy="25.75" r="6.5" fill="#CCC3E0"/>
<circle cx="2170.57" cy="532.821" r="7.5" transform="rotate(49.6916 2170.57 532.821)" fill="#CCC3E0"/>
<circle cx="2654.5" cy="83.0332" r="7.5" fill="#CCC3E0"/>
<circle cx="2437.96" cy="53.6382" r="7.5" transform="rotate(48.7815 2437.96 53.6382)" fill="#CCC3E0"/>
<circle cx="3554.58" cy="606.833" r="7.5" transform="rotate(48.7815 3554.58 606.833)" fill="#CCC3E0"/>
<circle cx="2726.96" cy="70.3419" r="4.39923" transform="rotate(146.718 2726.96 70.3419)" fill="#CCC3E0"/>
<circle cx="2229.68" cy="140.999" r="2.88831" transform="rotate(146.718 2229.68 140.999)" fill="#CCC3E0"/>
<circle cx="2495.25" cy="99.7765" r="4.39923" transform="rotate(-164.5 2495.25 99.7765)" fill="#CCC3E0"/>
<circle cx="1929.5" cy="486.5" r="3.5" fill="#CCC3E0"/>
<circle cx="2077.55" cy="160.325" r="2.88831" transform="rotate(-164.5 2077.55 160.325)" fill="#CCC3E0"/>
<circle cx="5188.39" cy="311.13" r="4.39923" transform="rotate(-15.7031 5188.39 311.13)" fill="#CCC3E0"/>
<circle cx="1718.5" cy="102.75" r="3.5" fill="#CCC3E0"/>
<circle cx="2117.42" cy="434.415" r="4.39923" transform="rotate(-164.5 2117.42 434.415)" fill="#CCC3E0"/>
<circle cx="2059.5" cy="163.75" r="3.5" fill="#CCC3E0"/>
<circle cx="5643.43" cy="62.6757" r="4.39923" transform="rotate(-15.7031 5643.43 62.6757)" fill="#CCC3E0"/>
<circle cx="1916.5" cy="53.75" r="3.5" fill="#CCC3E0"/>
<circle cx="4724.43" cy="212.676" r="4.39923" transform="rotate(-15.7031 4724.43 212.676)" fill="#CCC3E0"/>
<circle cx="1644.5" cy="223.75" r="3.5" fill="#CCC3E0"/>
<circle cx="4278.88" cy="221.13" r="4.39923" transform="rotate(51.3725 4278.88 221.13)" fill="#CCC3E0"/>
<circle cx="4537.71" cy="446.532" r="3.5" transform="rotate(-162.422 4537.71 446.532)" fill="#CCC3E0"/>
<circle cx="5061.39" cy="21.6435" r="3.5" transform="rotate(-162.422 5061.39 21.6435)" fill="#CCC3E0"/>
<circle cx="1518.5" cy="609.75" r="3.5" fill="#CCC3E0"/>
<circle cx="5466.9" cy="344.375" r="3.5" transform="rotate(-166.924 5466.9 344.375)" fill="#CCC3E0"/>
<circle cx="1242.67" cy="352.263" r="3.5" transform="rotate(146.718 1242.67 352.263)" fill="#CCC3E0"/>
<circle cx="4369.36" cy="736.215" r="6.5" transform="rotate(-162.422 4369.36 736.215)" fill="#CCC3E0"/>
<circle cx="3875.16" cy="228.646" r="6.5" transform="rotate(-162.422 3875.16 228.646)" fill="#CCC3E0"/>
<circle cx="2078.93" cy="386.183" r="3.5" transform="rotate(49.6916 2078.93 386.183)" fill="#CCC3E0"/>
<circle cx="1711.5" cy="196.75" r="2.5" fill="#CCC3E0"/>
<circle cx="2053.24" cy="279.243" r="2.29792" transform="rotate(48.7815 2053.24 279.243)" fill="#CCC3E0"/>
<circle cx="1939.24" cy="230.243" r="2.29792" transform="rotate(48.7815 1939.24 230.243)" fill="#CCC3E0"/>
<circle cx="1993.14" cy="315.814" r="1.18427" transform="rotate(48.7815 1993.14 315.814)" fill="#CCC3E0"/>
<circle cx="2063.67" cy="240.671" r="1.18427" transform="rotate(48.7815 2063.67 240.671)" fill="#CCC3E0"/>
<circle cx="2048.67" cy="265.671" r="1.18427" transform="rotate(48.7815 2048.67 265.671)" fill="#CCC3E0"/>
<circle cx="1964.67" cy="398.671" r="1.18427" transform="rotate(48.7815 1964.67 398.671)" fill="#CCC3E0"/>
<circle cx="2211.67" cy="426.671" r="1.18427" transform="rotate(48.7815 2211.67 426.671)" fill="#CCC3E0"/>
<circle cx="2377.67" cy="505.671" r="1.18427" transform="rotate(48.7815 2377.67 505.671)" fill="#CCC3E0"/>
<circle cx="2443.67" cy="121.671" r="1.18427" transform="rotate(48.7815 2443.67 121.671)" fill="#CCC3E0"/>
<circle cx="2367.67" cy="35.6712" r="1.18427" transform="rotate(48.7815 2367.67 35.6712)" fill="#CCC3E0"/>
<circle cx="2287.67" cy="168.671" r="1.18427" transform="rotate(48.7815 2287.67 168.671)" fill="#CCC3E0"/>
<circle cx="2735.67" cy="92.6712" r="1.18427" transform="rotate(48.7815 2735.67 92.6712)" fill="#CCC3E0"/>
<circle cx="2522.67" cy="636.671" r="1.18427" transform="rotate(48.7815 2522.67 636.671)" fill="#CCC3E0"/>
<circle cx="2309.67" cy="410.671" r="1.18427" transform="rotate(48.7815 2309.67 410.671)" fill="#CCC3E0"/>
<circle cx="2718.67" cy="653.671" r="1.18427" transform="rotate(48.7815 2718.67 653.671)" fill="#CCC3E0"/>
<circle cx="2281.67" cy="589.671" r="1.18427" transform="rotate(48.7815 2281.67 589.671)" fill="#CCC3E0"/>
<circle cx="1983.67" cy="544.671" r="1.18427" transform="rotate(48.7815 1983.67 544.671)" fill="#CCC3E0"/>
<circle cx="1974.03" cy="532.357" r="1.66096" transform="rotate(48.7815 1974.03 532.357)" fill="#CCC3E0"/>
<circle cx="1324.67" cy="190.671" r="1.18427" transform="rotate(48.7815 1324.67 190.671)" fill="#CCC3E0"/>
<circle cx="1614.67" cy="308.671" r="1.18427" transform="rotate(48.7815 1614.67 308.671)" fill="#CCC3E0"/>
<circle cx="1261.67" cy="391.671" r="1.18427" transform="rotate(48.7815 1261.67 391.671)" fill="#CCC3E0"/>
<circle cx="1147.67" cy="49.6712" r="1.18427" transform="rotate(48.7815 1147.67 49.6712)" fill="#CCC3E0"/>
<circle cx="1294.67" cy="114.671" r="1.18427" transform="rotate(48.7815 1294.67 114.671)" fill="#CCC3E0"/>
<circle cx="985.671" cy="455.671" r="1.18427" transform="rotate(48.7815 985.671 455.671)" fill="#CCC3E0"/>
<circle cx="1172.67" cy="503.671" r="1.18427" transform="rotate(48.7815 1172.67 503.671)" fill="#CCC3E0"/>
<circle cx="1441.67" cy="561.671" r="1.18427" transform="rotate(48.7815 1441.67 561.671)" fill="#CCC3E0"/>
<circle cx="1044.67" cy="702.671" r="1.18427" transform="rotate(48.7815 1044.67 702.671)" fill="#CCC3E0"/>
<circle cx="925.671" cy="800.671" r="1.18427" transform="rotate(48.7815 925.671 800.671)" fill="#CCC3E0"/>
<circle cx="958.671" cy="715.671" r="1.18427" transform="rotate(48.7815 958.671 715.671)" fill="#CCC3E0"/>
<circle cx="1664.67" cy="10.6712" r="1.18427" transform="rotate(48.7815 1664.67 10.6712)" fill="#CCC3E0"/>
<circle cx="3409.67" cy="339.671" r="1.18427" transform="rotate(48.7815 3409.67 339.671)" fill="#CCC3E0"/>
<circle cx="3111.06" cy="356.518" r="1.37504" transform="rotate(48.7815 3111.06 356.518)" fill="#CCC3E0"/>
<circle cx="2942.67" cy="80.6712" r="1.18427" transform="rotate(48.7815 2942.67 80.6712)" fill="#CCC3E0"/>
<circle cx="3089.67" cy="145.671" r="1.18427" transform="rotate(48.7815 3089.67 145.671)" fill="#CCC3E0"/>
<circle cx="2780.67" cy="486.671" r="1.18427" transform="rotate(48.7815 2780.67 486.671)" fill="#CCC3E0"/>
<circle cx="2967.67" cy="534.671" r="1.18427" transform="rotate(48.7815 2967.67 534.671)" fill="#CCC3E0"/>
<circle cx="3320.06" cy="553.903" r="1.37504" transform="rotate(48.7815 3320.06 553.903)" fill="#CCC3E0"/>
<circle cx="2859.11" cy="717.616" r="1.37504" transform="rotate(48.7815 2859.11 717.616)" fill="#CCC3E0"/>
<circle cx="3244.48" cy="659.233" r="3" transform="rotate(48.7815 3244.48 659.233)" fill="#CCC3E0"/>
<circle cx="2753.67" cy="746.671" r="1.18427" transform="rotate(48.7815 2753.67 746.671)" fill="#CCC3E0"/>
<circle cx="3459.67" cy="41.6712" r="1.18427" transform="rotate(48.7815 3459.67 41.6712)" fill="#CCC3E0"/>
<circle cx="1895.67" cy="165.671" r="1.18427" transform="rotate(48.7815 1895.67 165.671)" fill="#CCC3E0"/>
<circle cx="1934.67" cy="244.671" r="1.18427" transform="rotate(48.7815 1934.67 244.671)" fill="#CCC3E0"/>
<circle cx="1623.43" cy="368.477" r="3.14779" transform="rotate(-83.6442 1623.43 368.477)" fill="#CCC3E0"/>
<circle cx="1679.24" cy="529.031" r="3.14779" transform="rotate(-83.6442 1679.24 529.031)" fill="#CCC3E0"/>
<circle cx="1715.95" cy="395.454" r="1.62226" transform="rotate(-83.6442 1715.95 395.454)" fill="#CCC3E0"/>
<circle cx="1574.79" cy="393.579" r="1.62226" transform="rotate(-83.6442 1574.79 393.579)" fill="#CCC3E0"/>
<circle cx="1613.93" cy="385.642" r="1.62226" transform="rotate(-83.6442 1613.93 385.642)" fill="#CCC3E0"/>
<circle cx="1698.05" cy="520.32" r="1.62226" transform="rotate(-83.6442 1698.05 520.32)" fill="#CCC3E0"/>
<circle cx="1824.67" cy="277.671" r="1.18427" transform="rotate(48.7815 1824.67 277.671)" fill="#CCC3E0"/>
<circle cx="2522.67" cy="636.671" r="1.18427" transform="rotate(48.7815 2522.67 636.671)" fill="#CCC3E0"/>
<circle cx="2443.67" cy="121.671" r="1.18427" transform="rotate(48.7815 2443.67 121.671)" fill="#CCC3E0"/>
<circle cx="4783.14" cy="383.721" r="3.5" transform="rotate(-162.422 4783.14 383.721)" fill="#CCC3E0"/>
<circle cx="1080.5" cy="725.75" r="2.5" fill="#CCC3E0"/>
<circle cx="5706.65" cy="262.492" r="3.5" transform="rotate(-166.924 5706.65 262.492)" fill="#CCC3E0"/>
<circle cx="2685.2" cy="590.837" r="3.5" transform="rotate(48.7815 2685.2 590.837)" fill="#CCC3E0"/>
<circle cx="4277.18" cy="155.597" r="3.5" transform="rotate(-95.346 4277.18 155.597)" fill="#CCC3E0"/>
<circle cx="1685" cy="405.25" r="3" fill="#CCC3E0"/>
<circle cx="2202.27" cy="482.73" r="2.29792" transform="rotate(48.7815 2202.27 482.73)" fill="#CCC3E0"/>
<circle cx="4555.63" cy="714.455" r="3.5" transform="rotate(-162.422 4555.63 714.455)" fill="#CCC3E0"/>
<circle cx="1368" cy="194.25" r="2" fill="#CCC3E0"/>
<circle cx="4061.43" cy="206.885" r="3.5" transform="rotate(-162.422 4061.43 206.885)" fill="#CCC3E0"/>
<circle cx="3345.39" cy="126.644" r="3.5" transform="rotate(-162.422 3345.39 126.644)" fill="#CCC3E0"/>
<circle cx="1139.46" cy="35.7116" r="2.5" transform="rotate(146.718 1139.46 35.7116)" fill="#CCC3E0"/>
<circle cx="1017" cy="470.25" r="3" fill="#CCC3E0"/>
<circle cx="1042.5" cy="332.75" r="1.5" fill="#CCC3E0"/>
<circle cx="1109.21" cy="222.756" r="3" transform="rotate(146.718 1109.21 222.756)" fill="#CCC3E0"/>
<circle cx="1440" cy="113.25" r="3" fill="#CCC3E0"/>
<circle cx="4248.97" cy="553.317" r="3.5" transform="rotate(-162.422 4248.97 553.317)" fill="#CCC3E0"/>
<circle cx="2911.37" cy="449.882" r="3.5" transform="rotate(48.7815 2911.37 449.882)" fill="#CCC3E0"/>
<circle cx="4352.08" cy="701.369" r="3.5" transform="rotate(-162.422 4352.08 701.369)" fill="#CCC3E0"/>
<circle cx="1352.56" cy="208.96" r="3" transform="rotate(146.718 1352.56 208.96)" fill="#CCC3E0"/>
<circle cx="4662.72" cy="621.454" r="3.5" transform="rotate(-162.422 4662.72 621.454)" fill="#CCC3E0"/>
<circle cx="2350.76" cy="390.187" r="2.29792" transform="rotate(48.7815 2350.76 390.187)" fill="#CCC3E0"/>
<circle cx="2469.24" cy="344.243" r="2.29792" transform="rotate(48.7815 2469.24 344.243)" fill="#CCC3E0"/>
<circle cx="2549.92" cy="232.308" r="3.5" transform="rotate(-164.5 2549.92 232.308)" fill="#CCC3E0"/>
<circle cx="3776.08" cy="607.378" r="3.5" transform="rotate(7.35263 3776.08 607.378)" fill="#CCC3E0"/>
<circle cx="3983.92" cy="939.919" r="3.5" transform="rotate(7.35263 3983.92 939.919)" fill="#CCC3E0"/>
<circle cx="4899.41" cy="291.531" r="3.5" transform="rotate(-162.422 4899.41 291.531)" fill="#CCC3E0"/>
<circle cx="5084.59" cy="620.298" r="3.5" transform="rotate(-15.7031 5084.59 620.298)" fill="#CCC3E0"/>
<circle cx="4590.69" cy="626.958" r="2.5" transform="rotate(-162.422 4590.69 626.958)" fill="#CCC3E0"/>
<circle cx="3361.11" cy="683.411" r="3.5" transform="rotate(154.071 3361.11 683.411)" fill="#CCC3E0"/>
<circle cx="4096.49" cy="119.389" r="2.5" transform="rotate(-162.422 4096.49 119.389)" fill="#CCC3E0"/>
<circle cx="4678.92" cy="436.197" r="3" transform="rotate(-162.422 4678.92 436.197)" fill="#CCC3E0"/>
<circle cx="5606.87" cy="322.987" r="3" transform="rotate(-166.924 5606.87 322.987)" fill="#CCC3E0"/>
<circle cx="5205.04" cy="363.181" r="2.5" transform="rotate(-162.422 5205.04 363.181)" fill="#CCC3E0"/>
<circle cx="4188.25" cy="80.0529" r="3" transform="rotate(-95.346 4188.25 80.0529)" fill="#CCC3E0"/>
<circle cx="2313.69" cy="389.828" r="2.5" transform="rotate(48.7815 2313.69 389.828)" fill="#CCC3E0"/>
<circle cx="2859.73" cy="223.245" r="3" transform="rotate(48.7815 2859.73 223.245)" fill="#CCC3E0"/>
<circle cx="4917.39" cy="733.082" r="2" transform="rotate(-162.422 4917.39 733.082)" fill="#CCC3E0"/>
<circle cx="2151.23" cy="223.228" r="3" transform="rotate(49.6916 2151.23 223.228)" fill="#CCC3E0"/>
<circle cx="2730.12" cy="220.536" r="3" transform="rotate(-164.5 2730.12 220.536)" fill="#CCC3E0"/>
<circle cx="4178.39" cy="458.835" r="3" transform="rotate(-112.73 4178.39 458.835)" fill="#CCC3E0"/>
<circle cx="5127.7" cy="818.95" r="3" transform="rotate(-15.7031 5127.7 818.95)" fill="#CCC3E0"/>
<circle cx="4824.29" cy="788.555" r="3" transform="rotate(-162.422 4824.29 788.555)" fill="#CCC3E0"/>
<circle cx="2316.86" cy="241.388" r="1.96965" transform="rotate(48.7815 2316.86 241.388)" fill="#CCC3E0"/>
<circle cx="3585.36" cy="620.609" r="3" transform="rotate(7.35263 3585.36 620.609)" fill="#CCC3E0"/>
<circle cx="4936.56" cy="723.724" r="3" transform="rotate(-15.7031 4936.56 723.724)" fill="#CCC3E0"/>
<circle cx="2781.89" cy="265.542" r="1.46309" transform="rotate(48.7815 2781.89 265.542)" fill="#CCC3E0"/>
<circle cx="2857.33" cy="236.29" r="1.46309" transform="rotate(48.7815 2857.33 236.29)" fill="#CCC3E0"/>
<circle cx="2908.7" cy="165.02" r="2.22845" transform="rotate(-164.5 2908.7 165.02)" fill="#CCC3E0"/>
<circle cx="3689.4" cy="403.827" r="2.22845" transform="rotate(7.35263 3689.4 403.827)" fill="#CCC3E0"/>
<circle cx="3821.73" cy="615.557" r="2.22845" transform="rotate(7.35263 3821.73 615.557)" fill="#CCC3E0"/>
<circle cx="4404.62" cy="202.728" r="2.22845" transform="rotate(-162.422 4404.62 202.728)" fill="#CCC3E0"/>
<circle cx="4522.53" cy="412.054" r="2.22845" transform="rotate(-15.7031 4522.53 412.054)" fill="#CCC3E0"/>
<circle cx="2630.8" cy="174.59" r="1.46309" transform="rotate(-164.5 2630.8 174.59)" fill="#CCC3E0"/>
<circle cx="4208.06" cy="416.294" r="1.59175" transform="rotate(-162.422 4208.06 416.294)" fill="#CCC3E0"/>
<circle cx="3425.18" cy="452.238" r="2.22845" transform="rotate(154.071 3425.18 452.238)" fill="#CCC3E0"/>
<circle cx="3893.4" cy="93.1249" r="1.59175" transform="rotate(-162.422 3893.4 93.1249)" fill="#CCC3E0"/>
<circle cx="4264.24" cy="294.837" r="1.9101" transform="rotate(-162.422 4264.24 294.837)" fill="#CCC3E0"/>
<circle cx="4855.06" cy="222.756" r="1.9101" transform="rotate(-166.924 4855.06 222.756)" fill="#CCC3E0"/>
<circle cx="4599.22" cy="248.348" r="1.59175" transform="rotate(-162.422 4599.22 248.348)" fill="#CCC3E0"/>
<circle cx="3951.83" cy="68.0799" r="1.9101" transform="rotate(-95.346 3951.83 68.0799)" fill="#CCC3E0"/>
<circle cx="2758.3" cy="265.314" r="1.59175" transform="rotate(48.7815 2758.3 265.314)" fill="#CCC3E0"/>
<circle cx="3105.96" cy="159.251" r="1.9101" transform="rotate(48.7815 3105.96 159.251)" fill="#CCC3E0"/>
<circle cx="4416.07" cy="483.863" r="1.2734" transform="rotate(-162.422 4416.07 483.863)" fill="#CCC3E0"/>
<circle cx="2654.85" cy="159.24" r="1.9101" transform="rotate(49.6916 2654.85 159.24)" fill="#CCC3E0"/>
<circle cx="3023.44" cy="157.525" r="1.9101" transform="rotate(-164.5 3023.44 157.525)" fill="#CCC3E0"/>
<circle cx="3945.55" cy="309.251" r="1.9101" transform="rotate(-112.73 3945.55 309.251)" fill="#CCC3E0"/>
<circle cx="4549.97" cy="538.536" r="1.9101" transform="rotate(-15.7031 4549.97 538.536)" fill="#CCC3E0"/>
<circle cx="4356.79" cy="519.183" r="1.9101" transform="rotate(-162.422 4356.79 519.183)" fill="#CCC3E0"/>
<circle cx="3149.88" cy="267.688" r="3.32217" transform="rotate(48.7815 3149.88 267.688)" fill="#CCC3E0"/>
<circle cx="3567.96" cy="412.252" r="1.9101" transform="rotate(7.35263 3567.96 412.252)" fill="#CCC3E0"/>
<circle cx="4428.28" cy="477.905" r="1.9101" transform="rotate(-15.7031 4428.28 477.905)" fill="#CCC3E0"/>
<circle cx="2231.76" cy="239.609" r="1.96965" transform="rotate(-164.5 2231.76 239.609)" fill="#CCC3E0"/>
<circle cx="3488.43" cy="555.348" r="3" transform="rotate(154.071 3488.43 555.348)" fill="#CCC3E0"/>
<circle cx="5415" cy="138.25" r="22" fill="url(#paint32_linear_2090_4256)"/>
<circle cx="2116.24" cy="33.2427" r="2.29792" transform="rotate(48.7815 2116.24 33.2427)" fill="#CCC3E0"/>
<circle cx="3569.24" cy="757.243" r="2.29792" transform="rotate(48.7815 3569.24 757.243)" fill="#CCC3E0"/>
<defs>
<linearGradient id="paint0_linear_2090_4256" x1="931.5" y1="815.961" x2="931.5" y2="995.25" gradientUnits="userSpaceOnUse">
<stop stop-color="#8680E5" stop-opacity="0.41"/>
<stop offset="0.789681" stop-color="#FFBAE3"/>
</linearGradient>
<linearGradient id="paint1_linear_2090_4256" x1="1675.5" y1="905.25" x2="1675.5" y2="1029.75" gradientUnits="userSpaceOnUse">
<stop stop-color="#8680E5" stop-opacity="0.41"/>
<stop offset="0.575" stop-color="#FFBAE3"/>
</linearGradient>
<linearGradient id="paint2_linear_2090_4256" x1="2828" y1="961.25" x2="2828" y2="1057.25" gradientUnits="userSpaceOnUse">
<stop stop-color="#8680E5" stop-opacity="0.41"/>
<stop offset="0.575" stop-color="#FFBAE3"/>
</linearGradient>
<linearGradient id="paint3_linear_2090_4256" x1="5454.2" y1="900.118" x2="5464.63" y2="944.206" gradientUnits="userSpaceOnUse">
<stop stop-color="#2C1973"/>
<stop offset="0.795" stop-color="#6747B2"/>
</linearGradient>
<linearGradient id="paint4_linear_2090_4256" x1="4882.5" y1="952.75" x2="4882.5" y2="1022.75" gradientUnits="userSpaceOnUse">
<stop stop-color="#2C1973"/>
<stop offset="0.795" stop-color="#6747B2"/>
</linearGradient>
<linearGradient id="paint5_linear_2090_4256" x1="874.204" y1="936.118" x2="884.634" y2="980.206" gradientUnits="userSpaceOnUse">
<stop stop-color="#2C1973"/>
<stop offset="0.795" stop-color="#6747B2"/>
</linearGradient>
<linearGradient id="paint6_linear_2090_4256" x1="2617.92" y1="971.25" x2="2617.92" y2="1041.25" gradientUnits="userSpaceOnUse">
<stop stop-color="#2C1973"/>
<stop offset="0.795" stop-color="#6747B2"/>
</linearGradient>
<linearGradient id="paint7_linear_2090_4256" x1="1610" y1="948.75" x2="1610" y2="1018.75" gradientUnits="userSpaceOnUse">
<stop stop-color="#2C1973"/>
<stop offset="0.795" stop-color="#6747B2"/>
</linearGradient>
<linearGradient id="paint8_linear_2090_4256" x1="2880" y1="782.75" x2="2880" y2="1427.75" gradientUnits="userSpaceOnUse">
<stop offset="0.24" stop-color="#8680E5"/>
<stop offset="0.605" stop-color="#E3ADE4"/>
<stop offset="0.65" stop-color="#FFA87C"/>
</linearGradient>
<linearGradient id="paint9_linear_2090_4256" x1="549.181" y1="992.118" x2="538.75" y2="1036.21" gradientUnits="userSpaceOnUse">
<stop stop-color="#2C1973"/>
<stop offset="0.795" stop-color="#6747B2"/>
</linearGradient>
<linearGradient id="paint10_linear_2090_4256" x1="747.898" y1="1007.99" x2="747.898" y2="1072.55" gradientUnits="userSpaceOnUse">
<stop stop-color="#2C1973"/>
<stop offset="0.795" stop-color="#6747B2"/>
</linearGradient>
<linearGradient id="paint11_linear_2090_4256" x1="5061.9" y1="1005.99" x2="5061.9" y2="1070.55" gradientUnits="userSpaceOnUse">
<stop stop-color="#2C1973"/>
<stop offset="0.795" stop-color="#6747B2"/>
</linearGradient>
<linearGradient id="paint12_linear_2090_4256" x1="1177" y1="948.25" x2="1177" y2="1018.25" gradientUnits="userSpaceOnUse">
<stop stop-color="#2C1973"/>
<stop offset="0.795" stop-color="#6747B2"/>
</linearGradient>
<linearGradient id="paint13_linear_2090_4256" x1="1820.37" y1="956.305" x2="1806.27" y2="1024.87" gradientUnits="userSpaceOnUse">
<stop stop-color="#2C1973"/>
<stop offset="0.795" stop-color="#6747B2"/>
</linearGradient>
<linearGradient id="paint14_linear_2090_4256" x1="3402.69" y1="939.25" x2="3402.69" y2="1009.25" gradientUnits="userSpaceOnUse">
<stop stop-color="#2C1973"/>
<stop offset="0.795" stop-color="#6747B2"/>
</linearGradient>
<linearGradient id="paint15_linear_2090_4256" x1="3752.69" y1="892.25" x2="3752.69" y2="962.25" gradientUnits="userSpaceOnUse">
<stop stop-color="#2C1973"/>
<stop offset="0.795" stop-color="#6747B2"/>
</linearGradient>
<linearGradient id="paint16_linear_2090_4256" x1="4118" y1="977.75" x2="4118" y2="1047.75" gradientUnits="userSpaceOnUse">
<stop stop-color="#2C1973"/>
<stop offset="0.795" stop-color="#6747B2"/>
</linearGradient>
<linearGradient id="paint17_linear_2090_4256" x1="3033.5" y1="779.75" x2="3038.5" y2="1599.75" gradientUnits="userSpaceOnUse">
<stop offset="0.205" stop-color="#4B3EAA"/>
<stop offset="1" stop-color="#FFA87C"/>
</linearGradient>
<linearGradient id="paint18_linear_2090_4256" x1="466.567" y1="825.322" x2="472.971" y2="837.619" gradientUnits="userSpaceOnUse">
<stop stop-color="#E1E1E1"/>
<stop offset="1" stop-color="#978E9E"/>
</linearGradient>
<linearGradient id="paint19_linear_2090_4256" x1="520.032" y1="797.533" x2="546.264" y2="797.579" gradientUnits="userSpaceOnUse">
<stop stop-color="#8680E5"/>
<stop offset="0.44" stop-color="#4B3EAA"/>
</linearGradient>
<linearGradient id="paint20_linear_2090_4256" x1="415.019" y1="857.891" x2="429.485" y2="857.891" gradientUnits="userSpaceOnUse">
<stop stop-color="#61429D"/>
<stop offset="1" stop-color="#221737"/>
</linearGradient>
<linearGradient id="paint21_linear_2090_4256" x1="406.35" y1="881.213" x2="413.533" y2="881.213" gradientUnits="userSpaceOnUse">
<stop stop-color="#61429D"/>
<stop offset="1" stop-color="#221737"/>
</linearGradient>
<linearGradient id="paint22_linear_2090_4256" x1="455.917" y1="847.275" x2="458.417" y2="855.775" gradientUnits="userSpaceOnUse">
<stop stop-color="#978E9E"/>
<stop offset="1" stop-color="#E1E1E1"/>
</linearGradient>
<linearGradient id="paint23_linear_2090_4256" x1="486.875" y1="874.073" x2="556.875" y2="1033.07" gradientUnits="userSpaceOnUse">
<stop stop-color="#61429D"/>
<stop offset="1" stop-color="#221737"/>
</linearGradient>
<linearGradient id="paint24_linear_2090_4256" x1="480.916" y1="877.306" x2="470.916" y2="1039.31" gradientUnits="userSpaceOnUse">
<stop stop-color="#61429D"/>
<stop offset="1" stop-color="#221737"/>
</linearGradient>
<linearGradient id="paint25_linear_2090_4256" x1="475.864" y1="877.499" x2="412.864" y2="1003.5" gradientUnits="userSpaceOnUse">
<stop stop-color="#61429D"/>
<stop offset="1" stop-color="#221737"/>
</linearGradient>
<linearGradient id="paint26_linear_2090_4256" x1="464.5" y1="954.982" x2="428" y2="1070.98" gradientUnits="userSpaceOnUse">
<stop stop-color="#221737"/>
<stop offset="1" stop-color="#4B3EAA" stop-opacity="0"/>
</linearGradient>
<linearGradient id="paint27_linear_2090_4256" x1="346" y1="939.5" x2="309.5" y2="1055.5" gradientUnits="userSpaceOnUse">
<stop stop-color="#221737"/>
<stop offset="1" stop-color="#4B3EAA" stop-opacity="0"/>
</linearGradient>
<linearGradient id="paint28_linear_2090_4256" x1="415.957" y1="995.958" x2="416.173" y2="1007.8" gradientUnits="userSpaceOnUse">
<stop stop-color="#8680E5"/>
<stop offset="1" stop-color="#4B3EAA"/>
</linearGradient>
<linearGradient id="paint29_linear_2090_4256" x1="404.686" y1="1004.93" x2="406.343" y2="1022.3" gradientUnits="userSpaceOnUse">
<stop stop-color="#8680E5"/>
<stop offset="1" stop-color="#4B3EAA"/>
</linearGradient>
<linearGradient id="paint30_linear_2090_4256" x1="376.308" y1="818.75" x2="376.954" y2="1012.27" gradientUnits="userSpaceOnUse">
<stop stop-color="#FFA87C"/>
<stop offset="0.84" stop-color="#3B2F99"/>
<stop offset="1" stop-color="#2C1973"/>
</linearGradient>
<linearGradient id="paint31_linear_2090_4256" x1="5440.51" y1="155.943" x2="5461.01" y2="159.413" gradientUnits="userSpaceOnUse">
<stop offset="0.55" stop-color="#87CDFF"/>
<stop offset="1" stop-color="#F5BF84"/>
</linearGradient>
<linearGradient id="paint32_linear_2090_4256" x1="5415" y1="116.25" x2="5433.5" y2="150.75" gradientUnits="userSpaceOnUse">
<stop offset="0.415" stop-color="#FFE485"/>
<stop offset="1" stop-color="#E99649"/>
</linearGradient>
</defs>
</svg>
