<svg width="320" height="565" viewBox="0 0 320 565" fill="none" xmlns="http://www.w3.org/2000/svg">
<g clip-path="url(#clip0_2114_391)">
<rect width="320" height="565" fill="white"/>
<rect width="320" height="565" fill="#221737"/>
<rect x="222.625" y="466.293" width="16.2388" height="48.7223" transform="rotate(52.7135 222.625 466.293)" fill="url(#paint0_linear_2114_391)"/>
<path d="M201.448 476.634C201.448 476.634 205.711 475.01 206.648 476.241C207.586 477.473 205.042 481.355 205.042 481.355L177.911 506.553L169.784 495.88L201.448 476.634Z" fill="url(#paint1_linear_2114_391)"/>
<path d="M214.279 493.487C214.279 493.487 218.542 491.862 219.479 493.093C220.417 494.325 217.873 498.207 217.873 498.207L190.742 523.405L182.615 512.732L214.279 493.487Z" fill="url(#paint2_linear_2114_391)"/>
<path d="M208.288 484.104C208.288 484.104 212.856 482.333 213.843 483.629C214.83 484.925 212.071 489.073 212.071 489.073L182.834 516.113L174.28 504.879L208.288 484.104Z" fill="url(#paint3_linear_2114_391)"/>
<rect x="251.729" y="440.585" width="21.8871" height="39.3526" transform="rotate(52.7135 251.729 440.585)" fill="#662A83"/>
<rect x="228.37" y="458.37" width="21.8871" height="1.24929" transform="rotate(52.7135 228.37 458.37)" fill="#CCC4DF"/>
<rect x="226.383" y="459.884" width="21.8871" height="0.624645" transform="rotate(52.7135 226.383 459.884)" fill="#CCC4DF"/>
<path d="M267.731 438.979C269.735 438.821 271.922 441.61 271.131 443.444C269.545 447.121 264.987 457.998 264.987 457.998L251.728 440.584C251.728 440.584 265.664 439.143 267.731 438.979Z" fill="url(#paint4_linear_2114_391)"/>
<ellipse cx="249.625" cy="456.384" rx="6.35431" ry="6.87109" transform="rotate(52.7135 249.625 456.384)" fill="#D9D9D9"/>
<ellipse cx="249.625" cy="456.383" rx="5.64827" ry="6.24645" transform="rotate(52.7135 249.625 456.383)" fill="url(#paint5_linear_2114_391)"/>
<rect x="222.32" y="466.799" width="39.4646" height="4.46784" transform="rotate(-37.2865 222.32 466.799)" fill="#CCC4DF" fill-opacity="0.11"/>
<rect x="192.096" y="492.783" width="39.4646" height="3.3813" transform="rotate(-37.2865 192.096 492.783)" fill="#CCC4DF" fill-opacity="0.06"/>
<ellipse cx="170.51" cy="501.13" rx="3.94622" ry="1.84157" transform="rotate(52.8826 170.51 501.13)" fill="#FFDF70"/>
<ellipse cx="169.404" cy="501.705" rx="3.28499" ry="1.53299" transform="rotate(52.8826 169.404 501.705)" fill="#FF8244"/>
<ellipse cx="168.182" cy="502.033" rx="2.42901" ry="1.13354" transform="rotate(52.8826 168.182 502.033)" fill="#FF4242"/>
<ellipse cx="185.53" cy="520.455" rx="3.94622" ry="1.84157" transform="rotate(52.8204 185.53 520.455)" fill="#FFDF70"/>
<ellipse cx="184.47" cy="521.127" rx="3.36181" ry="1.56884" transform="rotate(52.8204 184.47 521.127)" fill="#FF8244"/>
<ellipse cx="183.349" cy="521.883" rx="2.28459" ry="1.06614" transform="rotate(52.8204 183.349 521.883)" fill="#FF4242"/>
<ellipse cx="176.164" cy="512.346" rx="5.09322" ry="2.21756" transform="rotate(53.1256 176.164 512.346)" fill="#FFDF70"/>
<ellipse cx="174.538" cy="512.944" rx="4.14496" ry="1.88333" transform="rotate(53.1256 174.538 512.944)" fill="#FF8244"/>
<ellipse cx="173.213" cy="513.56" rx="2.62487" ry="1.19266" transform="rotate(53.1256 173.213 513.56)" fill="#FF4242"/>
<ellipse cx="268.825" cy="259.477" rx="65.642" ry="2.90209" transform="rotate(-17.3803 268.825 259.477)" fill="#7CC8FF" fill-opacity="0.4"/>
<circle cx="280.789" cy="255.472" r="11.7611" transform="rotate(-47.6074 280.789 255.472)" fill="url(#paint6_linear_2114_391)"/>
<ellipse cx="3.13067" cy="3.08964" rx="3.13067" ry="3.08964" transform="matrix(-0.294499 0.955652 -0.952913 -0.303243 204.614 529.514)" fill="#CCC3E0"/>
<ellipse cx="3.13508" cy="3.08517" rx="3.13508" ry="3.08517" transform="matrix(-0.0230229 0.999735 -0.999717 -0.0237742 250.312 76.1467)" fill="#CCC3E0"/>
<ellipse cx="3.13508" cy="3.08517" rx="3.13508" ry="3.08517" transform="matrix(-0.0230229 0.999735 -0.999717 -0.0237742 150.203 404.345)" fill="#CCC3E0"/>
<ellipse cx="2.23934" cy="2.20369" rx="2.23934" ry="2.20369" transform="matrix(-0.0230229 0.999735 -0.999717 -0.0237742 171.711 465.785)" fill="#CCC3E0"/>
<ellipse cx="2.23934" cy="2.20369" rx="2.23934" ry="2.20369" transform="matrix(-0.0230229 0.999735 -0.999717 -0.0237742 292.64 325.576)" fill="#CCC3E0"/>
<ellipse cx="2.23934" cy="2.20369" rx="2.23934" ry="2.20369" transform="matrix(-0.0230229 0.999735 -0.999717 -0.0237742 189.51 25.1048)" fill="#CCC3E0"/>
<ellipse cx="1.13903" cy="1.1241" rx="1.13903" ry="1.1241" transform="matrix(-0.294499 0.955652 -0.952913 -0.303243 113.188 505.856)" fill="#CCC3E0"/>
<ellipse cx="1.13903" cy="1.1241" rx="1.13903" ry="1.1241" transform="matrix(-0.294499 0.955652 -0.952913 -0.303243 74.8135 415.682)" fill="#CCC3E0"/>
<ellipse cx="1.13903" cy="1.1241" rx="1.13903" ry="1.1241" transform="matrix(-0.294499 0.955652 -0.952913 -0.303243 38.8145 361.681)" fill="#CCC3E0"/>
<ellipse cx="1.14063" cy="1.12247" rx="1.14063" ry="1.12247" transform="matrix(-0.0230229 0.999735 -0.999717 -0.0237742 168.353 243.245)" fill="#CCC3E0"/>
<ellipse cx="1.14063" cy="1.12247" rx="1.14063" ry="1.12247" transform="matrix(-0.0230229 0.999735 -0.999717 -0.0237742 213.298 46.0535)" fill="#CCC3E0"/>
<ellipse cx="1.70893" cy="1.68575" rx="1.70893" ry="1.68575" transform="matrix(-0.269802 -0.962916 0.960598 -0.277941 105.338 497.805)" fill="#CCC3E0"/>
<ellipse cx="1.70893" cy="1.68575" rx="1.70893" ry="1.68575" transform="matrix(-0.269802 -0.962916 0.960598 -0.277941 293.923 156.227)" fill="#CCC3E0"/>
<ellipse cx="1.70337" cy="1.69137" rx="1.70337" ry="1.69137" transform="matrix(-0.522933 -0.852374 0.844743 -0.535172 158.617 237.713)" fill="#CCC3E0"/>
<ellipse cx="1.70337" cy="1.69137" rx="1.70337" ry="1.69137" transform="matrix(-0.522933 -0.852374 0.844743 -0.535172 29.7822 516.975)" fill="#CCC3E0"/>
<path d="M45 422.133C45 422.133 50.9227 417.958 55.3015 418C58.2389 418.029 59.1965 418.109 61.3659 419.957C63.6164 421.874 64.1616 424.71 63.6024 427.505C62.9537 430.747 60.458 432.769 56.1132 433.096C49.5865 433.587 48.6461 429.742 48.6461 429.742C48.6461 429.742 48.6694 432.789 50.044 434.075C53.731 437.523 63.9912 433.184 63.9912 433.184C63.9912 433.184 59.3035 436.751 55.4954 437.15C51.3087 437.588 48.3667 435.892 47.1087 434.075C44.9131 430.903 45.4313 426.107 47.3882 424.011C49.0081 422.275 51.5815 421.075 54.3771 421.075C60.3606 421.075 60.8068 425.409 60.8068 425.409C60.8068 425.409 60.7481 421.766 58.5952 420.368C54.1958 417.51 45 422.133 45 422.133Z" fill="url(#paint7_radial_2114_391)" fill-opacity="0.6"/>
<path d="M50.6766 430.245C49.497 428.794 50.1541 426.196 50.1541 426.196C50.1541 426.196 50.2532 425.104 53.2021 424.3C50.2069 422.447 48.2559 426.584 48.2559 426.584C48.2559 426.584 49.8164 423.479 52.3861 422.698C55.2113 421.839 57.4071 422.385 58.5138 423.453C60.4453 425.317 60.237 427.903 59.1668 429.592C58.2808 430.99 57.8174 431.287 55.9172 431.772C52.2471 432.709 50.6766 430.245 50.6766 430.245Z" fill="url(#paint8_radial_2114_391)" fill-opacity="0.6"/>
</g>
<defs>
<linearGradient id="paint0_linear_2114_391" x1="231.024" y1="365.403" x2="230.808" y2="515.015" gradientUnits="userSpaceOnUse">
<stop stop-color="#17091D"/>
<stop offset="1" stop-color="#662A83"/>
</linearGradient>
<linearGradient id="paint1_linear_2114_391" x1="206.648" y1="476.241" x2="173.848" y2="501.216" gradientUnits="userSpaceOnUse">
<stop stop-color="#E6E0F6"/>
<stop offset="1" stop-color="#BAB0D2"/>
</linearGradient>
<linearGradient id="paint2_linear_2114_391" x1="219.479" y1="493.093" x2="186.679" y2="518.068" gradientUnits="userSpaceOnUse">
<stop stop-color="#E6E0F6"/>
<stop offset="1" stop-color="#BAB0D2"/>
</linearGradient>
<linearGradient id="paint3_linear_2114_391" x1="213.843" y1="483.629" x2="178.557" y2="510.496" gradientUnits="userSpaceOnUse">
<stop stop-color="#F3F3F3"/>
<stop offset="1" stop-color="#CAC2DE"/>
</linearGradient>
<linearGradient id="paint4_linear_2114_391" x1="271.103" y1="448.756" x2="260.593" y2="437.035" gradientUnits="userSpaceOnUse">
<stop stop-color="#CAC2DE"/>
<stop offset="1" stop-color="#A799C6"/>
</linearGradient>
<linearGradient id="paint5_linear_2114_391" x1="244.824" y1="449.387" x2="258.41" y2="463.037" gradientUnits="userSpaceOnUse">
<stop stop-color="#B3A7CE"/>
<stop offset="1" stop-color="#221737"/>
</linearGradient>
<linearGradient id="paint6_linear_2114_391" x1="280.789" y1="243.711" x2="280.789" y2="267.233" gradientUnits="userSpaceOnUse">
<stop offset="0.5" stop-color="#7C99FF"/>
<stop offset="1" stop-color="#44DDFF"/>
</linearGradient>
<radialGradient id="paint7_radial_2114_391" cx="0" cy="0" r="1" gradientUnits="userSpaceOnUse" gradientTransform="translate(54.7965 427.785) rotate(90) scale(9.78446 9.92424)">
<stop offset="0.145" stop-color="#BFE4FF"/>
<stop offset="1" stop-color="#66BFFF"/>
</radialGradient>
<radialGradient id="paint8_radial_2114_391" cx="0" cy="0" r="1" gradientUnits="userSpaceOnUse" gradientTransform="translate(54.8114 427.738) rotate(-101) scale(6.78254 6.96225)">
<stop offset="0.145" stop-color="#BFE4FF"/>
<stop offset="1" stop-color="#66BFFF"/>
</radialGradient>
<clipPath id="clip0_2114_391">
<rect width="320" height="565" fill="white"/>
</clipPath>
</defs>
</svg>
