<svg width="57" height="38" viewBox="0 0 57 38" fill="none" xmlns="http://www.w3.org/2000/svg">
<path d="M13.7322 17.2322C12.7559 18.2085 12.7559 19.7915 13.7322 20.7678L29.6421 36.6777C30.6184 37.654 32.2014 37.654 33.1777 36.6777C34.154 35.7014 34.154 34.1184 33.1777 33.1421L19.0355 19L33.1777 4.85786C34.154 3.88155 34.154 2.29864 33.1777 1.32233C32.2014 0.346018 30.6184 0.346017 29.6421 1.32233L13.7322 17.2322ZM56.5 16.5L15.5 16.5L15.5 21.5L56.5 21.5L56.5 16.5Z" fill="#4B3EAA"/>
<path d="M1.23223 17.2322C0.255922 18.2085 0.255922 19.7915 1.23223 20.7678L17.1421 36.6777C18.1184 37.654 19.7014 37.654 20.6777 36.6777C21.654 35.7014 21.654 34.1184 20.6777 33.1421L6.53553 19L20.6777 4.85787C21.654 3.88155 21.654 2.29864 20.6777 1.32233C19.7014 0.346021 18.1184 0.346021 17.1421 1.32233L1.23223 17.2322ZM6.5 16.5L3 16.5L3 21.5L6.5 21.5L6.5 16.5Z" fill="#4B3EAA"/>
</svg>
