<svg width="324" height="565" viewBox="0 0 324 565" fill="none" xmlns="http://www.w3.org/2000/svg">
<g clip-path="url(#clip0_2112_390)">
<path d="M-249 380.217C-249 380.217 -176.048 407.217 -89.024 407.217C-2 407.217 79.3539 380.217 87.927 380.217C96.5 380.217 383.51 449.217 394.505 450.217C405.5 451.217 454 425.717 457 428.217C460 430.717 564 460.217 609.5 455.217C655 450.217 750.5 386.217 750.5 386.217C750.5 386.217 884 414.717 911 416.217C938 417.717 1053 388.717 1079.5 390.717C1106 392.717 1303.5 447.717 1366.5 459.217C1429.5 470.717 1616.5 473.217 1652.5 470.717C1688.5 468.217 1968.5 385.217 1998.5 385.717C2028.5 386.217 2231.5 472.717 2294.5 481.717C2357.5 490.717 2881 510.717 2881 510.717L3575.5 492.717C3575.5 492.717 3698 474.718 3782 453.217C3866 431.717 3986 370.218 4047 370.217C4108 370.217 4501.5 490.718 4521.5 490.717C4541.5 490.717 4581 466.217 4600 467.717C4619 469.218 4647.5 502.717 4670.5 502.717C4693.5 502.717 4926.5 396.217 4926.5 396.217C4926.5 396.217 5004 458.217 5109 442.717C5214 427.217 5312 343.717 5348 347.217C5384 350.717 5511 380.217 5511 380.217V555.217H-249V380.217Z" fill="url(#paint0_linear_2112_390)"/>
<path d="M261.501 498.217L268.901 447.217L278.001 507.217L283.501 480.217L287.143 508.583L289.406 485.331L291.418 508.597L300.5 462.717L302.5 510.217L307.5 457.217L315.5 503.717L319.5 463.717L326.5 517.808L328.181 483.42L332.434 521.924L312.5 517.217L292.5 511.717L251 499.217L255.001 473.217L261.501 498.217Z" fill="url(#paint1_linear_2112_390)" fill-opacity="0.5"/>
<path d="M1657.1 505.885C1589.52 518.925 1440.5 444.218 1440.5 444.218C1440.5 444.218 1388.4 476.455 1363 477.718C1337.6 478.98 1122.5 454.224 1024.71 456.548C926.925 458.871 611.5 554.224 473.233 541.766C334.967 529.307 274 506.725 184.34 474.987C94.6799 443.249 35.5 410.7 -4.78076 403.224C-45.0615 395.749 -249 410.7 -249 410.7V564.968L5511 563.968V410.218C5511 410.218 5422.5 406.498 5366 410.218C5232.8 418.986 5032.5 485.218 5032.5 485.218C5032.5 485.218 4785.91 569.897 4636 527.718C4527.78 497.269 4426 383.218 4390 378.218C4354 373.218 4317.23 404.768 4273.5 391.218C4238.51 380.373 4197.5 336.218 4197.5 336.218C4197.5 336.218 4056 494.718 4040.5 493.218C4025 491.718 3988 476.218 3968.5 476.218C3949 476.218 3815 520.718 3765 516.718C3715 512.718 3591 406.724 3591 406.724C3591 406.724 3463 448.721 3433.15 450.224C3403.3 451.728 3362.67 435.724 3362.67 435.724C3362.67 435.724 3219.26 471.066 3125.4 477.225C2987.26 486.288 2772.47 444.224 2772.47 444.224L2591.29 491.725C2591.29 491.725 2253.56 538.355 2215.53 536.724C2177.5 535.094 2169 535.973 2053 485.218C1937 434.463 1773.5 392.718 1773.5 392.718C1773.5 392.718 1672 503.01 1657.1 505.885Z" fill="url(#paint2_linear_2112_390)"/>
<path d="M164.913 334.711L254.05 283.852L263.593 300.045L172.793 349.094L164.913 334.711Z" fill="url(#paint3_linear_2112_390)"/>
<rect x="271.031" y="270" width="26.6145" height="23.0009" transform="rotate(58.8042 271.031 270)" fill="url(#paint4_linear_2112_390)"/>
<rect x="166.02" y="335.484" width="14.4664" height="12.7499" transform="rotate(60.9879 166.02 335.484)" fill="url(#paint5_linear_2112_390)"/>
<rect x="157.35" y="345.772" width="7.18387" height="38.817" transform="rotate(60.9879 157.35 345.772)" fill="url(#paint6_linear_2112_390)"/>
<circle cx="206.918" cy="335.742" r="7.5" fill="#221737"/>
<circle cx="206.918" cy="335.742" r="4.5" fill="url(#paint7_linear_2112_390)"/>
<line x1="306.503" y1="517.645" x2="236.503" y2="358.645" stroke="url(#paint8_linear_2112_390)" stroke-width="2"/>
<line x1="220.42" y1="523.181" x2="230.42" y2="361.181" stroke="url(#paint9_linear_2112_390)" stroke-width="2"/>
<line x1="162.524" y1="486.795" x2="225.524" y2="360.795" stroke="url(#paint10_linear_2112_390)" stroke-width="2"/>
<rect x="215.418" y="351.242" width="27" height="10" fill="#221737"/>
<rect x="209.664" y="341.88" width="5" height="17.0002" transform="rotate(-38.5742 209.664 341.88)" fill="#221737"/>
<rect x="232.418" y="354.242" width="7" height="3" fill="#D9D9D9"/>
<path d="M183 474.468L258.5 500.949L312 515.968C312 515.968 265.566 519.925 241 529.449C221.53 536.998 194 552.699 194 552.699L75.5 542.949C75.5 542.949 103.68 516.243 124.5 502.949C145.699 489.414 183 474.468 183 474.468Z" fill="url(#paint11_linear_2112_390)"/>
<path d="M78 471.968L180 489.968C180 489.968 147.066 504.443 122.5 513.968C103.03 521.516 75.5 539.468 75.5 539.468L-64 512.449C-64 512.449 -10.876 490.284 13 483.949C37.5 477.449 78 471.968 78 471.968Z" fill="url(#paint12_linear_2112_390)"/>
<path d="M43.0981 477.764L52.4558 461.947L56.2744 470.76C56.2744 470.76 46.9596 484.51 46.0839 484.536C45.2081 484.563 34.8184 484.877 34.2243 483.647C33.6302 482.417 38.6843 481.641 38.6843 481.641L35.8525 481.102C35.8525 481.102 28.0283 483.835 25.7752 483.903C23.5221 483.971 23.5067 483.348 23.5067 483.348C23.5067 483.348 30.6906 477.515 32.9283 476.824C35.166 476.132 43.0981 477.764 43.0981 477.764Z" fill="#FF8C8C"/>
<path d="M92.4948 369.454C93.1937 367.925 91.1461 361.351 94.8129 359.262C96.5513 358.271 98.591 358.5 100.363 357.587C102.188 356.647 102.308 354.829 104.297 354.522C108.535 353.869 106.508 356.66 108.233 357.194C108.982 357.426 110.836 353.899 113.58 353.911C117.149 353.927 119.91 357.038 120.242 361.08C120.539 364.689 118.21 364.958 118.932 367.838C119.53 370.223 121.758 367.403 121.658 372.335C121.559 377.268 113.688 377.661 113.688 377.661C113.688 377.661 92.1845 392.484 91.9944 382.643C91.9557 380.64 93.5002 379.447 92.8002 377.602C92.1741 375.952 90.6765 376.449 90.2749 374.713C89.36 370.756 91.6741 371.248 92.4948 369.454Z" fill="#221737"/>
<path d="M98.5685 368.775C98.5685 368.775 105.16 362.746 108.65 362.679C112.14 362.611 119.007 372.44 117.779 380.195C116.552 387.95 108.223 387.72 108.223 387.72L106.686 394.766L112.593 400.092C112.593 400.092 108.232 403.222 103.013 403.21C96.6263 403.196 92.8708 396.35 92.8708 396.35C92.8708 396.35 97.6398 393.538 98.1979 385.13C98.756 376.722 98.1979 378.673 98.1979 378.673C98.1979 378.673 95.0269 379.156 95.7717 372.232C95.9295 370.766 98.8486 371.001 98.8486 371.001L98.5685 368.775Z" fill="#FF8C8C"/>
<path d="M152.23 480.193L167 480.193C167 480.193 175.084 484.767 178.777 485.948C182.47 487.128 181.8 491.506 181.8 491.506L152.406 492.041L152.23 480.193Z" fill="url(#paint13_linear_2112_390)"/>
<path d="M70.8477 407.311C74.9343 403.109 93.2226 395.739 93.2226 395.739C93.2226 395.739 98.6246 402.166 103.152 402.384C106.991 402.569 112.306 398.388 112.306 398.388C112.306 398.388 128.806 410.916 132.897 423.564C136.988 436.212 134.446 444.845 134.446 444.845L115.139 465.902C115.139 465.902 71.1825 465.155 70.1115 463.447C69.0405 461.739 69.7553 457.192 69.7553 457.192C69.7553 457.192 67.1894 466.452 61.9353 471.855C56.6811 477.258 51.073 461.45 51.073 461.45C51.073 461.45 55.436 454.205 57.6395 448.232C59.8431 442.258 66.7611 411.513 70.8477 407.311Z" fill="#2C1973"/>
<path d="M79.552 416.548C79.552 416.548 77.9287 431.936 74.7407 443.04C71.5527 454.143 69.1334 459.037 69.1334 459.037" stroke="#8680E5"/>
<path d="M73.8956 412.008C73.8956 412.008 74.5771 412.37 75.7317 414.22C76.8863 416.071 77.4775 417.931 77.4775 417.931" stroke="#8680E5"/>
<path d="M123.783 409.462C123.783 409.462 121.99 412.51 121.742 419.989C121.494 427.467 123.08 430.652 123.08 430.652" stroke="#8680E5"/>
<path d="M141.175 494.74L152.949 489.157C152.949 489.157 155.862 492.308 158.388 493.646C162.011 495.564 167.787 490.871 170.933 494.953C174.079 499.035 145.321 507.412 145.321 507.412L141.175 494.74Z" fill="url(#paint14_linear_2112_390)"/>
<path d="M75.3482 464.126L88.88 464.504C88.88 464.504 119.349 429.021 126.064 425.78C132.778 422.539 133.37 424.4 135.642 425.606C137.914 426.812 141.978 434.847 141.978 434.847C141.978 434.847 162.564 416.926 166.689 416.312C170.813 415.699 173.45 415.689 177.269 420.483C181.088 425.278 167.444 479.916 167.444 479.916L158.993 480.07L161.329 485.641L138.941 496.028L132.438 475.563C132.438 475.563 115.12 485.857 102.208 489.211C89.296 492.564 80.1982 487.116 77.2886 480.932C74.379 474.747 75.3482 464.126 75.3482 464.126Z" fill="url(#paint15_linear_2112_390)"/>
<path d="M142.531 434.213L160.725 485.43" stroke="#221737"/>
<path d="M126.248 438.773C126.248 438.773 125.374 450.348 126.527 457.582C127.731 465.129 132.437 476.084 132.437 476.084" stroke="#221737"/>
<path d="M114.637 483.621C114.637 483.621 119.328 479.185 121.733 475.758C124.781 471.416 127.862 463.421 127.862 463.421" stroke="#221737"/>
<path d="M82.9427 475.481L90.5312 461.979" stroke="#221737"/>
<path d="M163.279 429.694C163.279 429.694 158.833 438.524 156.775 444.558C154.483 451.276 152.492 462.324 152.492 462.324" stroke="#221737"/>
<path d="M102.647 383.044C102.647 383.044 103.809 385.11 104.795 386.201C105.781 387.292 108 388.187 108 388.187" stroke="#D15B5B"/>
<path d="M113.001 371.586C113.001 371.586 113.032 372.534 113.704 373.886C114.376 375.239 116.281 376.784 116.281 376.784" stroke="#D15B5B"/>
<path d="M104.174 375.022C104.174 375.022 105.097 375.239 106.578 374.945C108.06 374.65 110.05 373.218 110.05 373.218" stroke="#D15B5B"/>
<path d="M114.576 371.36C114.576 371.36 114.44 371.564 114.078 371.773C113.717 371.982 112.999 372.07 112.999 372.07" stroke="#D15B5B"/>
<line y1="-0.5" x2="6.33732" y2="-0.5" transform="matrix(0.192411 0.980719 -0.973 0.233835 157.17 433.323)" stroke="#221737"/>
<path d="M97.9469 365.139L100.788 361.707C100.788 361.707 104.793 363.139 104.473 365.444C104.234 367.173 103.168 368.461 101.633 368.876C100.488 369.186 99.6476 368.967 98.8429 368.151C98.0383 367.336 97.9469 365.139 97.9469 365.139Z" fill="#221737"/>
</g>
<defs>
<linearGradient id="paint0_linear_2112_390" x1="2631" y1="266.717" x2="2631" y2="911.717" gradientUnits="userSpaceOnUse">
<stop offset="0.24" stop-color="#8680E5"/>
<stop offset="0.605" stop-color="#E3ADE4"/>
<stop offset="0.65" stop-color="#FFA87C"/>
</linearGradient>
<linearGradient id="paint1_linear_2112_390" x1="300.181" y1="476.086" x2="289.75" y2="520.173" gradientUnits="userSpaceOnUse">
<stop stop-color="#2C1973"/>
<stop offset="0.795" stop-color="#6747B2"/>
</linearGradient>
<linearGradient id="paint2_linear_2112_390" x1="2784.5" y1="263.718" x2="2789.5" y2="1083.72" gradientUnits="userSpaceOnUse">
<stop offset="0.205" stop-color="#4B3EAA"/>
<stop offset="1" stop-color="#FFA87C"/>
</linearGradient>
<linearGradient id="paint3_linear_2112_390" x1="217.567" y1="309.289" x2="223.971" y2="321.587" gradientUnits="userSpaceOnUse">
<stop stop-color="#E1E1E1"/>
<stop offset="1" stop-color="#978E9E"/>
</linearGradient>
<linearGradient id="paint4_linear_2112_390" x1="271.031" y1="281.5" x2="297.263" y2="281.547" gradientUnits="userSpaceOnUse">
<stop stop-color="#8680E5"/>
<stop offset="0.44" stop-color="#4B3EAA"/>
</linearGradient>
<linearGradient id="paint5_linear_2112_390" x1="166.02" y1="341.859" x2="180.486" y2="341.859" gradientUnits="userSpaceOnUse">
<stop stop-color="#61429D"/>
<stop offset="1" stop-color="#221737"/>
</linearGradient>
<linearGradient id="paint6_linear_2112_390" x1="157.35" y1="365.18" x2="164.533" y2="365.18" gradientUnits="userSpaceOnUse">
<stop stop-color="#61429D"/>
<stop offset="1" stop-color="#221737"/>
</linearGradient>
<linearGradient id="paint7_linear_2112_390" x1="206.918" y1="331.242" x2="209.418" y2="339.742" gradientUnits="userSpaceOnUse">
<stop stop-color="#978E9E"/>
<stop offset="1" stop-color="#E1E1E1"/>
</linearGradient>
<linearGradient id="paint8_linear_2112_390" x1="237.876" y1="358.041" x2="307.876" y2="517.041" gradientUnits="userSpaceOnUse">
<stop stop-color="#61429D"/>
<stop offset="1" stop-color="#221737"/>
</linearGradient>
<linearGradient id="paint9_linear_2112_390" x1="231.917" y1="361.273" x2="221.917" y2="523.273" gradientUnits="userSpaceOnUse">
<stop stop-color="#61429D"/>
<stop offset="1" stop-color="#221737"/>
</linearGradient>
<linearGradient id="paint10_linear_2112_390" x1="226.865" y1="361.466" x2="163.865" y2="487.466" gradientUnits="userSpaceOnUse">
<stop stop-color="#61429D"/>
<stop offset="1" stop-color="#221737"/>
</linearGradient>
<linearGradient id="paint11_linear_2112_390" x1="215.5" y1="438.949" x2="179" y2="554.949" gradientUnits="userSpaceOnUse">
<stop stop-color="#221737"/>
<stop offset="1" stop-color="#4B3EAA" stop-opacity="0"/>
</linearGradient>
<linearGradient id="paint12_linear_2112_390" x1="97.0001" y1="423.467" x2="60.5" y2="539.468" gradientUnits="userSpaceOnUse">
<stop stop-color="#221737"/>
<stop offset="1" stop-color="#4B3EAA" stop-opacity="0"/>
</linearGradient>
<linearGradient id="paint13_linear_2112_390" x1="166.957" y1="479.925" x2="167.173" y2="491.772" gradientUnits="userSpaceOnUse">
<stop stop-color="#8680E5"/>
<stop offset="1" stop-color="#4B3EAA"/>
</linearGradient>
<linearGradient id="paint14_linear_2112_390" x1="155.686" y1="488.896" x2="157.343" y2="506.265" gradientUnits="userSpaceOnUse">
<stop stop-color="#8680E5"/>
<stop offset="1" stop-color="#4B3EAA"/>
</linearGradient>
<linearGradient id="paint15_linear_2112_390" x1="127.308" y1="302.718" x2="127.954" y2="496.237" gradientUnits="userSpaceOnUse">
<stop stop-color="#FFA87C"/>
<stop offset="0.84" stop-color="#3B2F99"/>
<stop offset="1" stop-color="#2C1973"/>
</linearGradient>
<clipPath id="clip0_2112_390">
<rect width="324" height="565" fill="white"/>
</clipPath>
</defs>
</svg>
