<svg width="110" height="111" viewBox="0 0 110 111" fill="none" xmlns="http://www.w3.org/2000/svg">
<circle cx="55" cy="55.25" r="55" fill="#CAC2DE"/>
<path d="M34.119 54.497C32.212 44.5912 53.8606 47.0574 53.119 36.997C52.6533 30.6779 39.986 28.2997 44.119 23.497C48.3986 18.524 52.2106 29.7828 57.619 33.497C61.4586 36.1337 65.4625 35.8686 67.619 39.997C70.9098 46.2969 60.3369 49.9325 61.119 56.997C62.1675 66.467 85.0816 67.9928 78.119 74.497C72.6297 79.6249 66.4849 70.0231 59.119 71.497C54.7445 72.3723 52.7425 77.6997 48.619 75.997C44.6608 74.3625 46.34 69.6585 44.119 65.997C41.0324 60.9085 35.2442 60.3412 34.119 54.497Z" fill="#A98BC1"/>
<path d="M52.1941 90.6077C57.1837 89.6981 55.0951 81.6382 58.6648 81.7545C61.9542 81.8617 61.8444 88.2262 71.0973 85.81C84.7093 82.2554 79.8087 69.2076 90.9072 74.6533C93.7329 76.0398 93.47 83.7161 90.6878 84.8782C81.8316 88.5775 73.1772 101.261 60.0424 99.7445C55.4545 99.2146 53.7703 96.9781 49.247 96.2521C42.4847 95.1669 37.2288 99.7339 31.1968 97.2882C26.6856 95.4592 24.8562 86.5893 28.5692 83.3627C32.0527 80.3356 46.6321 91.6217 52.1941 90.6077Z" fill="#A98BC1"/>
<path d="M90.4999 37.75C94.3533 35.5884 95.2583 42.7479 98.4999 45.75C100.225 47.3477 102.233 47.5274 103 49.75C104.519 54.153 97.393 57.7977 92.9999 56.25C89.9794 55.1859 90.2703 52.0087 87.9999 49.75C85.1194 46.8844 77.3361 47.1891 79.4999 43.75C81.1767 41.0852 85.0038 44.6689 87.4999 42.75C89.3053 41.3622 88.514 38.8641 90.4999 37.75Z" fill="#A98BC1"/>
<path d="M56.1402 6.46625C55.3461 5.44413 64.1456 4.22305 69.0866 5.76639C73.275 7.07469 80.1596 13.1216 76.2993 12.015C75.0361 11.6529 70.2794 8.64944 66.0166 7.63347C61.6 6.58083 57.2058 7.8377 56.1402 6.46625Z" fill="#A98BC1"/>
</svg>
