<svg width="56" height="38" viewBox="0 0 56 38" fill="none" xmlns="http://www.w3.org/2000/svg">
<path d="M42.7678 20.7678C43.7441 19.7915 43.7441 18.2085 42.7678 17.2322L26.8579 1.32233C25.8816 0.34602 24.2986 0.34602 23.3223 1.32233C22.346 2.29864 22.346 3.88155 23.3223 4.85786L37.4645 19L23.3223 33.1421C22.346 34.1184 22.346 35.7014 23.3223 36.6777C24.2986 37.654 25.8816 37.654 26.8579 36.6777L42.7678 20.7678ZM0 21.5L41 21.5V16.5L0 16.5L0 21.5Z" fill="#4B3EAA"/>
<path d="M55.2678 20.7678C56.2441 19.7915 56.2441 18.2085 55.2678 17.2322L39.3579 1.32233C38.3816 0.34602 36.7986 0.34602 35.8223 1.32233C34.846 2.29864 34.846 3.88155 35.8223 4.85786L49.9645 19L35.8223 33.1421C34.846 34.1184 34.846 35.7014 35.8223 36.6777C36.7986 37.654 38.3816 37.654 39.3579 36.6777L55.2678 20.7678ZM50 21.5H53.5V16.5H50V21.5Z" fill="#4B3EAA"/>
</svg>
