<svg width="176" height="167" viewBox="0 0 176 167" fill="none" xmlns="http://www.w3.org/2000/svg">
<path d="M99.6466 141.762C98.3433 130.77 88.8213 122.906 78.4239 124.139C68.0266 125.371 60.6076 135.244 61.9109 146.237C63.2143 157.229 72.7363 165.093 83.1336 163.86C93.5309 162.628 100.95 152.755 99.6466 141.762Z" stroke="white"/>
<path d="M59.1546 115.879C59.1546 115.879 45.7462 111.817 37.5522 113.963C28.8625 116.239 18.8914 127.368 18.8914 127.368L23.2666 135.804L37.7515 125.132C37.7515 125.132 51.9805 131.28 57.6585 131.726C63.3364 132.172 70.0714 132.123 77.7589 130.462C87.0721 128.449 97.4667 125.887 100.271 121.077C103.076 116.267 103.594 101.656 103.594 101.656L103.787 93.7984C103.787 93.7984 113.278 84.0148 117.487 76.5046C121.101 70.0561 124.399 58.8963 124.399 58.8963C124.399 58.8963 136.734 58.5529 142.019 55.688C147.304 52.823 153.176 45.4112 153.176 45.4112L152.26 37.6851C152.26 37.6851 121.196 41.3684 116.889 42.9981C112.582 44.6277 94.3825 71.4093 94.3825 71.4093C94.3825 71.4093 92.152 61.3895 90.2007 55.1164C88.4803 49.5859 85.1712 41.1626 85.1712 41.1626C85.1712 41.1626 90.8542 40.7332 93.9156 39.0065C98.2117 36.5834 101.744 29.1244 101.744 29.1244L100.697 20.2945C100.697 20.2945 72.6375 30.3372 68.5924 34.1743C64.5473 38.0114 68.1956 49.1893 69.2526 58.7194C70.4049 69.1091 74.6122 84.9458 74.6122 84.9458C71.6766 88.6519 68.8718 93.4612 68.8718 93.4612L60.975 93.2782L59.8031 102.371L63.5239 105.288C61.5668 107.758 59.1546 115.879 59.1546 115.879Z" fill="url(#paint0_linear_68_252)"/>
<path d="M109.171 24.4891C109.171 24.4891 115.073 27.1533 117.014 24.6806C118.955 22.2079 125.094 8.02459 124.962 6.91902C124.831 5.81344 120.294 5.2302 118.221 6.59701C116.149 7.96382 100.804 19.8748 100.804 19.8748L101.853 28.7206L109.171 24.4891Z" fill="url(#paint1_linear_68_252)"/>
<path d="M163.125 46.1238C164.227 45.9932 173.146 26.9954 173.015 25.8897C172.884 24.7839 170.549 23.9395 168.346 24.2007C166.143 24.4619 152.03 37.3478 152.03 37.3478L152.948 45.0879C152.948 45.0879 162.024 46.2544 163.125 46.1238Z" fill="url(#paint2_linear_68_252)"/>
<path d="M60.989 93.9115C60.989 93.9115 76.5857 93.7143 82.4007 96.0459C88.2157 98.3774 99.7681 113.049 99.7681 113.049" stroke="#9F99A4"/>
<path d="M63.4165 104.701L76.7441 105.709C76.7441 105.709 81.6308 112.262 85.487 115.749C89.3839 119.273 96.4772 123.509 96.4772 123.509" stroke="#9F99A4"/>
<path d="M30.4141 117.546L38 125" stroke="#9F99A4"/>
<path d="M37.5 125C37.5 125 38.8828 121.822 39.1325 119.735C39.3865 117.611 38.9909 114.259 38.9909 114.259" stroke="#9F99A4"/>
<path d="M67.0866 130.982C67.0866 130.982 63.6154 127.189 62.1798 124.282C60.5209 120.922 59.4997 115.5 59.4997 115.5" stroke="#9F99A4"/>
<line x1="86.5082" y1="123.358" x2="89.5834" y2="118.724" stroke="#9F99A4"/>
<path d="M77.1221 104.657C77.1221 104.657 76.2679 101.699 76.0368 99.7504C75.8058 97.8017 75.9447 94.7263 75.9447 94.7263" stroke="#9F99A4"/>
<path d="M76.9186 105.122C76.9186 105.122 79.4226 103.745 80.9184 102.697C82.7239 101.431 85.2673 99.0967 85.2673 99.0967" stroke="#9F99A4"/>
<path d="M74.3184 86.3433C74.3184 86.3433 83.4728 83.8844 89.342 84.5619C95.8931 85.3182 105.052 90.7554 105.052 90.7554" stroke="#9F99A4"/>
<path d="M72.5508 88.562C72.5508 88.562 82.6043 88.0047 88.8789 89.1647C94.7529 90.2507 103.402 93.9672 103.402 93.9672" stroke="#9F99A4"/>
<path d="M75.2848 83.1796C75.2848 83.1796 81.1092 80.652 84.605 78.5943C88.5135 76.2937 94.0861 71.8874 94.0861 71.8874" stroke="#9F99A4"/>
<path d="M73.4572 77.3939C73.4572 77.3939 79.5522 77.1541 83.318 76.2299C87.6687 75.1621 93.9579 71.9422 93.9579 71.9422" stroke="#9F99A4"/>
<path d="M108.364 88.5894C108.364 88.5894 102.396 85.1389 99.594 81.8525C96.7919 78.566 94.3284 72.1275 94.3284 72.1275" stroke="#9F99A4"/>
<path d="M110.787 84.1851C110.787 84.1851 105.78 81.9252 102.892 79.9506C99.1154 77.3685 94.2431 72.0486 94.2431 72.0486" stroke="#9F99A4"/>
<path d="M85.5605 40.9031C85.5605 40.9031 81.6805 38.439 79.601 36.39C77.6962 34.5131 75.328 31.0393 75.328 31.0393" stroke="#9F99A4"/>
<path d="M85.3896 41.7595C85.3896 41.7595 76.4545 43.8127 73.8541 43.114C71.2538 42.4153 68.0369 39.789 68.0369 39.789" stroke="#9F99A4"/>
<path d="M111.302 51.6507C111.302 51.6507 114.136 53.9338 116.072 55.227C118.761 57.0231 123.285 59.293 123.285 59.293" stroke="#9F99A4"/>
<path d="M125.914 57.5515C125.914 57.5515 124.089 53.2374 123.546 50.3132C123.009 47.4143 123.155 42.7736 123.155 42.7736" stroke="#9F99A4"/>
<path d="M40.0193 97.476L48.1147 102.055L60.2667 102.628L61.1931 93.455L53.6864 93.8415L48.8056 90.8957L49.4454 87.7988L45.4733 88.2698L42.2331 90.668L40.0193 97.476Z" fill="#6E2C8D"/>
<path d="M15.459 136.639L23.4034 135.698L18.868 127.172L16.1244 129.512L4.14899 130.428L0.765518 135.864L4.30781 144.507L7.37136 140.619L10.6704 138.718L11.2002 143.186L15.459 136.639Z" fill="#6E2C8D"/>
<path d="M75 149C75 149 79.8673 151.941 82.5 151C85.2581 150.014 87 145.5 87 145.5L83.5 135.5C83.5 135.5 85.5 138 87 138.5C90.4804 139.66 92.1944 143.344 92.5 147C92.8038 150.635 92.2309 151.582 89.5 154C86.5618 156.602 83.7532 156.148 80 155C76.4131 153.903 73 151 73 150.5C73 150 75 149 75 149Z" fill="#FFE485"/>
<path d="M88.2499 146.291C88.2499 146.291 85.4999 152 82 152C78.5001 152 72.9985 149.69 71.5959 143.95C70.1933 138.211 76.0405 135.949 76.0405 135.949L75.3352 132.937L69.687 130.958C69.687 130.958 71.7101 128.646 75.3352 127.137C79.7724 125.29 84.4629 127.82 84.4629 127.82C84.4629 127.82 81.6943 128.834 83.7516 134.832C85.809 140.83 85.6289 139.313 85.6289 139.313C85.6289 139.313 87.6895 138.056 89.1857 143.078C89.5026 144.142 87.4081 144.827 87.4081 144.827L88.2499 146.291Z" fill="#FF8C8C"/>
<path d="M80.6969 137.956C80.6969 137.956 79.4338 137.102 78.5598 136.691C77.6859 136.28 76.1864 136.098 76.1864 136.098" stroke="#D15B5B"/>
<path d="M76.6893 147.712C76.6893 147.712 76.3918 147.063 75.5323 146.319C74.6728 145.576 72.9012 145.058 72.9012 145.058" stroke="#D15B5B"/>
<path d="M81.8145 142.761C81.8145 142.761 81.1107 142.878 80.1685 143.514C79.2262 144.149 78.2615 145.722 78.2615 145.722" stroke="#D15B5B"/>
<path d="M75.6602 148.327C75.6602 148.327 75.6953 148.146 75.8855 147.896C76.0758 147.646 76.5477 147.376 76.5477 147.376" stroke="#D15B5B"/>
<path d="M97.0001 142C97.0001 142 97.1706 144.706 97.0042 146.445C96.8258 148.309 96.0001 151 96.0001 151" stroke="white"/>
<defs>
<linearGradient id="paint0_linear_68_252" x1="96" y1="42.5" x2="265.5" y2="39" gradientUnits="userSpaceOnUse">
<stop stop-color="white"/>
<stop offset="1" stop-color="#8680E5"/>
</linearGradient>
<linearGradient id="paint1_linear_68_252" x1="95" y1="62" x2="140.5" y2="-5" gradientUnits="userSpaceOnUse">
<stop stop-color="#1E0C27"/>
<stop offset="1" stop-color="#6E2C8D"/>
</linearGradient>
<linearGradient id="paint2_linear_68_252" x1="95" y1="62" x2="140.5" y2="-5" gradientUnits="userSpaceOnUse">
<stop stop-color="#1E0C27"/>
<stop offset="1" stop-color="#6E2C8D"/>
</linearGradient>
</defs>
</svg>
