<svg width="366" height="381" viewBox="0 0 366 381" fill="none" xmlns="http://www.w3.org/2000/svg">
<rect x="221.1" y="181.678" width="17" height="9" transform="rotate(-27.1208 221.1 181.678)" fill="white"/>
<rect x="170.042" y="81.9924" width="17" height="9" transform="rotate(-27.1208 170.042 81.9924)" fill="white"/>
<rect x="173.363" y="55.5732" width="77" height="163" transform="rotate(-27.1208 173.363 55.5732)" fill="white"/>
<rect x="173.363" y="55.5732" width="77" height="163" transform="rotate(-27.1208 173.363 55.5732)" fill="url(#paint0_linear_68_80)"/>
<rect x="87.2676" y="124.388" width="17" height="9" transform="rotate(-27.1208 87.2676 124.388)" fill="white"/>
<rect x="138.325" y="224.073" width="17" height="9" transform="rotate(-27.1208 138.325 224.073)" fill="white"/>
<rect x="10.4854" y="138.997" width="77" height="163" transform="rotate(-27.1208 10.4854 138.997)" fill="white"/>
<rect x="10.4854" y="138.997" width="77" height="163" transform="rotate(-27.1208 10.4854 138.997)" fill="url(#paint1_linear_68_80)"/>
<rect x="216.475" y="258.2" width="5" height="25" transform="rotate(-27.1208 216.475 258.2)" fill="#48205F"/>
<rect x="97.666" y="89.8501" width="60" height="8" transform="rotate(-27.1208 97.666 89.8501)" fill="url(#paint2_linear_68_80)"/>
<rect x="192.01" y="225.789" width="17" height="9" transform="rotate(-27.1208 192.01 225.789)" fill="#D0C2E5"/>
<path d="M94.2577 107.325C92.7471 104.376 93.9134 100.761 96.8627 99.2499L159.166 67.3391C162.115 65.8285 165.731 66.9948 167.242 69.9442L228.784 190.101C233.316 198.949 229.817 209.795 220.969 214.327L180.026 235.297C171.178 239.829 160.332 236.33 155.8 227.482L94.2577 107.325Z" fill="#48205F"/>
<circle cx="232.604" cy="284.207" r="7.5" transform="rotate(-27.1208 232.604 284.207)" fill="#FFE898"/>
<path d="M202.587 229.359C244.865 207.706 265.259 235.46 265.259 235.46L170.914 283.782C170.914 283.782 160.31 251.013 202.587 229.359Z" fill="url(#paint3_linear_68_80)"/>
<path d="M115.261 59.4912C144.377 44.5787 157.777 62.4331 157.777 62.4331L92.8034 95.7115C92.8034 95.7115 86.1456 74.4037 115.261 59.4912Z" fill="url(#paint4_linear_68_80)"/>
<rect x="20.3623" y="142.927" width="16" height="16" transform="rotate(-27.1208 20.3623 142.927)" fill="#D0C2E5"/>
<rect x="40.4209" y="182.089" width="16" height="16" transform="rotate(-27.1208 40.4209 182.089)" fill="#D0C2E5"/>
<rect x="60.4785" y="221.251" width="16" height="16" transform="rotate(-27.1208 60.4785 221.251)" fill="#D0C2E5"/>
<rect x="80.5371" y="260.413" width="16" height="16" transform="rotate(-27.1208 80.5371 260.413)" fill="#D0C2E5"/>
<rect x="30.3916" y="162.508" width="16" height="16" transform="rotate(-27.1208 30.3916 162.508)" fill="#D0C2E5"/>
<rect x="50.4492" y="201.67" width="16" height="16" transform="rotate(-27.1208 50.4492 201.67)" fill="#D0C2E5"/>
<rect x="70.5078" y="240.832" width="16" height="16" transform="rotate(-27.1208 70.5078 240.832)" fill="#D0C2E5"/>
<rect x="41.7236" y="131.986" width="16" height="16" transform="rotate(-27.1208 41.7236 131.986)" fill="#D0C2E5"/>
<rect x="61.7812" y="171.148" width="16" height="16" transform="rotate(-27.1208 61.7812 171.148)" fill="#D0C2E5"/>
<rect x="81.8398" y="210.31" width="16" height="16" transform="rotate(-27.1208 81.8398 210.31)" fill="#D0C2E5"/>
<rect x="101.898" y="249.472" width="16" height="16" transform="rotate(-27.1208 101.898 249.472)" fill="#D0C2E5"/>
<rect x="51.7529" y="151.567" width="16" height="16" transform="rotate(-27.1208 51.7529 151.567)" fill="#D0C2E5"/>
<rect x="71.8105" y="190.729" width="16" height="16" transform="rotate(-27.1208 71.8105 190.729)" fill="#D0C2E5"/>
<rect x="91.8691" y="229.891" width="16" height="16" transform="rotate(-27.1208 91.8691 229.891)" fill="#D0C2E5"/>
<rect x="63.085" y="121.045" width="16" height="16" transform="rotate(-27.1208 63.085 121.045)" fill="#D0C2E5"/>
<rect x="83.1426" y="160.207" width="16" height="16" transform="rotate(-27.1208 83.1426 160.207)" fill="#D0C2E5"/>
<rect x="103.201" y="199.369" width="16" height="16" transform="rotate(-27.1208 103.201 199.369)" fill="#D0C2E5"/>
<rect x="123.259" y="238.531" width="16" height="16" transform="rotate(-27.1208 123.259 238.531)" fill="#D0C2E5"/>
<rect x="73.1133" y="140.626" width="16" height="16" transform="rotate(-27.1208 73.1133 140.626)" fill="#D0C2E5"/>
<rect x="93.1719" y="179.788" width="16" height="16" transform="rotate(-27.1208 93.1719 179.788)" fill="#D0C2E5"/>
<rect x="113.23" y="218.95" width="16" height="16" transform="rotate(-27.1208 113.23 218.95)" fill="#D0C2E5"/>
<rect x="182.785" y="58.6125" width="16" height="16" transform="rotate(-27.1208 182.785 58.6125)" fill="#D0C2E5"/>
<rect x="202.843" y="97.7747" width="16" height="16" transform="rotate(-27.1208 202.843 97.7747)" fill="#D0C2E5"/>
<rect x="222.901" y="136.937" width="16" height="16" transform="rotate(-27.1208 222.901 136.937)" fill="#D0C2E5"/>
<rect x="242.96" y="176.099" width="16" height="16" transform="rotate(-27.1208 242.96 176.099)" fill="#D0C2E5"/>
<rect x="192.814" y="78.1936" width="16" height="16" transform="rotate(-27.1208 192.814 78.1936)" fill="#D0C2E5"/>
<rect x="212.872" y="117.356" width="16" height="16" transform="rotate(-27.1208 212.872 117.356)" fill="#D0C2E5"/>
<rect x="232.931" y="156.518" width="16" height="16" transform="rotate(-27.1208 232.931 156.518)" fill="#D0C2E5"/>
<rect x="204.146" y="47.6716" width="16" height="16" transform="rotate(-27.1208 204.146 47.6716)" fill="#D0C2E5"/>
<rect x="224.204" y="86.8337" width="16" height="16" transform="rotate(-27.1208 224.204 86.8337)" fill="#D0C2E5"/>
<rect x="244.263" y="125.996" width="16" height="16" transform="rotate(-27.1208 244.263 125.996)" fill="#D0C2E5"/>
<rect x="264.32" y="165.158" width="16" height="16" transform="rotate(-27.1208 264.32 165.158)" fill="#D0C2E5"/>
<rect x="214.175" y="67.2527" width="16" height="16" transform="rotate(-27.1208 214.175 67.2527)" fill="#D0C2E5"/>
<rect x="234.233" y="106.415" width="16" height="16" transform="rotate(-27.1208 234.233 106.415)" fill="#D0C2E5"/>
<rect x="254.292" y="145.577" width="16" height="16" transform="rotate(-27.1208 254.292 145.577)" fill="#D0C2E5"/>
<rect x="225.507" y="36.731" width="16" height="16" transform="rotate(-27.1208 225.507 36.731)" fill="#D0C2E5"/>
<rect x="245.565" y="75.8931" width="16" height="16" transform="rotate(-27.1208 245.565 75.8931)" fill="#D0C2E5"/>
<rect x="265.624" y="115.055" width="16" height="16" transform="rotate(-27.1208 265.624 115.055)" fill="#D0C2E5"/>
<rect x="285.682" y="154.217" width="16" height="16" transform="rotate(-27.1208 285.682 154.217)" fill="#D0C2E5"/>
<rect x="235.536" y="56.312" width="16" height="16" transform="rotate(-27.1208 235.536 56.312)" fill="#D0C2E5"/>
<rect x="255.595" y="95.4741" width="16" height="16" transform="rotate(-27.1208 255.595 95.4741)" fill="#D0C2E5"/>
<rect x="275.652" y="134.636" width="16" height="16" transform="rotate(-27.1208 275.652 134.636)" fill="#D0C2E5"/>
<rect x="104.743" y="127.796" width="82" height="22" transform="rotate(-27.1208 104.743 127.796)" fill="#6E2C8D"/>
<rect x="117.052" y="151.828" width="82" height="11" transform="rotate(-27.1208 117.052 151.828)" fill="#6E2C8D"/>
<rect x="153.109" y="88.418" width="6" height="91" transform="rotate(-27.1208 153.109 88.418)" fill="#D0C2E5"/>
<rect x="197.329" y="174.752" width="6" height="24" transform="rotate(-27.1208 197.329 174.752)" fill="#D0C2E5"/>
<rect x="149.463" y="81.2976" width="6" height="6" transform="rotate(-27.1208 149.463 81.2976)" fill="#D0C2E5"/>
<path d="M94.2577 107.325C92.7471 104.376 93.9134 100.761 96.8627 99.2499L159.166 67.3391C162.115 65.8285 165.731 66.9948 167.242 69.9442L228.784 190.101C233.316 198.949 229.817 209.795 220.969 214.327L180.026 235.297C171.178 239.829 160.332 236.33 155.8 227.482L94.2577 107.325Z" fill="url(#paint5_linear_68_80)"/>
<path d="M234 308.545C234 308.545 240.493 309.915 246.117 306.746C251.741 303.577 253.684 298 253.684 298" stroke="#D0C2E5" stroke-linecap="round"/>
<path d="M233 322.131C233 322.131 243.549 324.357 252.685 319.208C261.822 314.06 264.978 305 264.978 305" stroke="#D0C2E5" stroke-linecap="round"/>
<defs>
<linearGradient id="paint0_linear_68_80" x1="173.363" y1="55.5732" x2="250.363" y2="218.573" gradientUnits="userSpaceOnUse">
<stop stop-color="#FF8244" stop-opacity="0.2"/>
<stop offset="1" stop-color="#737373" stop-opacity="0"/>
</linearGradient>
<linearGradient id="paint1_linear_68_80" x1="10.4854" y1="138.997" x2="87.4854" y2="301.997" gradientUnits="userSpaceOnUse">
<stop stop-color="#FF8244" stop-opacity="0.2"/>
<stop offset="1" stop-color="#737373" stop-opacity="0"/>
</linearGradient>
<linearGradient id="paint2_linear_68_80" x1="97.666" y1="93.8501" x2="230.666" y2="93.8501" gradientUnits="userSpaceOnUse">
<stop stop-color="#6E2C8D"/>
<stop offset="1" stop-color="#B398CB"/>
</linearGradient>
<linearGradient id="paint3_linear_68_80" x1="198.804" y1="303.765" x2="213.013" y2="224.02" gradientUnits="userSpaceOnUse">
<stop stop-color="#6E2C8D"/>
<stop offset="1" stop-color="#48205F"/>
</linearGradient>
<linearGradient id="paint4_linear_68_80" x1="87.789" y1="85.9209" x2="75.1225" y2="48.0288" gradientUnits="userSpaceOnUse">
<stop stop-color="#D0C2E5"/>
<stop offset="0.425" stop-color="#A782BE"/>
<stop offset="1" stop-color="#702C89"/>
</linearGradient>
<linearGradient id="paint5_linear_68_80" x1="136.371" y1="161.032" x2="200.52" y2="134.918" gradientUnits="userSpaceOnUse">
<stop stop-opacity="0"/>
<stop offset="1" stop-color="#9542C5" stop-opacity="0.4"/>
</linearGradient>
</defs>
</svg>
