<svg width="90" height="59" viewBox="0 0 90 59" fill="none" xmlns="http://www.w3.org/2000/svg">
<rect x="24.4014" y="24.7341" width="3.61086" height="16.2489" transform="rotate(48.8347 24.4014 24.7341)" fill="url(#paint0_linear_51_980)"/>
<rect x="37.3379" y="29.4465" width="3.61086" height="16.2489" transform="rotate(25.2914 37.3379 29.4465)" fill="url(#paint1_linear_51_980)"/>
<rect width="3.61086" height="16.2489" transform="matrix(-0.996625 -0.0820874 -0.0820874 0.996625 52.6543 32.9272)" fill="url(#paint2_linear_51_980)"/>
<rect width="3.61086" height="16.2489" transform="matrix(-0.946454 0.322839 0.322839 0.946454 64.0566 34.7366)" fill="url(#paint3_linear_51_980)"/>
<ellipse cx="45.2728" cy="28.1458" rx="41.5249" ry="4.51358" transform="rotate(15 45.2728 28.1458)" fill="url(#paint4_linear_51_980)"/>
<path d="M27.7559 23.7638C30.3366 14.1325 40.2365 8.41679 49.8678 10.9975V10.9975C59.4992 13.5782 65.2149 23.4781 62.6342 33.1094V33.1094L27.7559 23.7638V23.7638Z" fill="url(#paint5_radial_51_980)"/>
<defs>
<linearGradient id="paint0_linear_51_980" x1="26.2068" y1="24.7341" x2="26.2068" y2="40.983" gradientUnits="userSpaceOnUse">
<stop stop-color="#423B3B"/>
<stop offset="1" stop-color="#36314A"/>
</linearGradient>
<linearGradient id="paint1_linear_51_980" x1="39.1433" y1="29.4465" x2="39.1433" y2="45.6954" gradientUnits="userSpaceOnUse">
<stop stop-color="#423B3B"/>
<stop offset="1" stop-color="#36314A"/>
</linearGradient>
<linearGradient id="paint2_linear_51_980" x1="1.80543" y1="0" x2="1.80543" y2="16.2489" gradientUnits="userSpaceOnUse">
<stop stop-color="#423B3B"/>
<stop offset="1" stop-color="#36314A"/>
</linearGradient>
<linearGradient id="paint3_linear_51_980" x1="1.80543" y1="0" x2="1.80543" y2="16.2489" gradientUnits="userSpaceOnUse">
<stop stop-color="#423B3B"/>
<stop offset="1" stop-color="#36314A"/>
</linearGradient>
<linearGradient id="paint4_linear_51_980" x1="46.4765" y1="22.7295" x2="46.7774" y2="32.6594" gradientUnits="userSpaceOnUse">
<stop stop-color="#A4ACB6" stop-opacity="0.78"/>
<stop offset="1" stop-color="#4A4850"/>
</linearGradient>
<radialGradient id="paint5_radial_51_980" cx="0" cy="0" r="1" gradientUnits="userSpaceOnUse" gradientTransform="translate(47.5217 11.615) rotate(97.875) scale(16.9818 33.9636)">
<stop stop-color="#84FFDA"/>
<stop offset="1" stop-color="#FF7575"/>
</radialGradient>
</defs>
</svg>
