<svg width="163" height="163" viewBox="0 0 163 163" fill="none" xmlns="http://www.w3.org/2000/svg">
<g clip-path="url(#clip0_2153_529)">
<path d="M153.2 78C155.87 78 158.051 80.1671 157.879 82.832C157.254 92.5148 154.755 102 150.504 110.757C145.547 120.965 138.339 129.916 129.422 136.934C120.505 143.953 110.111 148.857 99.0238 151.276C87.9366 153.695 76.445 153.567 65.4145 150.901C54.3841 148.235 44.1025 143.1 35.3442 135.884C26.5859 128.668 20.2628 119.317 15.5356 109C10.8085 98.6834 9.78219 86.8452 10.0356 75.5C10.2703 64.988 14.6343 53.4336 19.3969 43.7628C19.7592 43.0273 20.8387 43.1872 20.9838 43.9941V43.9941C21.0171 44.1792 20.9889 44.3688 20.9044 44.5367C16.4863 53.3165 14.7537 65.7136 14.5352 75.5C14.3145 85.3824 17.4179 96.0136 21.5356 105C25.6532 113.986 33.8644 122.135 41.4934 128.421C49.1225 134.706 58.0784 139.179 67.6865 141.501C77.2947 143.823 87.3046 143.935 96.9622 141.828C106.62 139.721 115.673 135.449 123.441 129.335C131.208 123.222 137.487 115.425 141.804 106.533C145.416 99.0934 147.577 91.0493 148.186 82.8309C148.383 80.1677 150.53 78 153.2 78V78Z" fill="url(#paint0_radial_2153_529)"/>
<rect x="145.22" y="67.8833" width="10.1245" height="30.3772" transform="rotate(-5.38697 145.22 67.8833)" fill="url(#paint1_linear_2153_529)"/>
<path d="M143.717 82.5008C143.717 82.5008 144.261 79.709 145.222 79.6184C146.183 79.5278 147.4 82.1535 147.4 82.1535L151.799 104.816L143.472 105.601L143.717 82.5008Z" fill="url(#paint2_linear_2153_529)"/>
<path d="M156.865 81.261C156.865 81.261 157.409 78.4692 158.37 78.3786C159.331 78.288 160.548 80.9137 160.548 80.9137L164.946 103.576L156.62 104.362L156.865 81.261Z" fill="url(#paint3_linear_2153_529)"/>
<path d="M149.925 81.3409C149.925 81.3409 150.492 78.3393 151.503 78.244C152.514 78.1486 153.801 80.9753 153.801 80.9753L158.482 105.36L149.717 106.186L149.925 81.3409Z" fill="url(#paint4_linear_2153_529)"/>
<rect x="141.201" y="44.009" width="13.6461" height="24.5355" transform="rotate(-5.38697 141.201 44.009)" fill="#662A83"/>
<rect x="142.92" y="62.2322" width="13.6461" height="0.778903" transform="rotate(-5.38697 142.92 62.2322)" fill="#CCC4DF"/>
<rect x="143.065" y="63.7834" width="13.6461" height="0.389452" transform="rotate(-5.38697 143.065 63.7834)" fill="#CCC4DF"/>
<path d="M145.623 35.0097C146.199 33.8972 148.397 33.658 149.107 34.6812C150.53 36.732 154.786 42.7283 154.786 42.7283L141.2 44.0094C141.2 44.0094 145.029 36.1582 145.623 35.0097Z" fill="url(#paint5_linear_2153_529)"/>
<ellipse cx="148.87" cy="50.3274" rx="3.96177" ry="4.28397" transform="rotate(-5.38697 148.87 50.3274)" fill="#D9D9D9"/>
<ellipse cx="148.87" cy="50.3275" rx="3.52157" ry="3.89452" transform="rotate(-5.38697 148.87 50.3275)" fill="url(#paint6_linear_2153_529)"/>
<rect x="145.388" y="68.2119" width="24.6053" height="2.78559" transform="rotate(-95.387 145.388 68.2119)" fill="#CCC4DF" fill-opacity="0.11"/>
<rect x="149.183" y="92.771" width="24.6053" height="2.10816" transform="rotate(-95.387 149.183 92.771)" fill="#CCC4DF" fill-opacity="0.06"/>
<ellipse cx="146.49" cy="106.947" rx="2.46038" ry="1.14818" transform="rotate(-5.21788 146.49 106.947)" fill="#FFDF70"/>
<ellipse cx="146.43" cy="107.721" rx="2.04811" ry="0.955786" transform="rotate(-5.21788 146.43 107.721)" fill="#FF8244"/>
<ellipse cx="146.201" cy="108.476" rx="1.51443" ry="0.706734" transform="rotate(-5.21788 146.201 108.476)" fill="#FF4242"/>
<ellipse cx="161.667" cy="105.363" rx="2.46038" ry="1.14818" transform="rotate(-5.28008 161.667 105.363)" fill="#FFDF70"/>
<ellipse cx="161.674" cy="106.146" rx="2.09601" ry="0.978138" transform="rotate(-5.28008 161.674 106.146)" fill="#FF8244"/>
<ellipse cx="161.704" cy="106.988" rx="1.42439" ry="0.664716" transform="rotate(-5.28008 161.704 106.988)" fill="#FF4242"/>
<ellipse cx="154.29" cy="107.649" rx="3.1755" ry="1.3826" transform="rotate(-4.97495 154.29 107.649)" fill="#FFDF70"/>
<ellipse cx="154.07" cy="108.706" rx="2.58429" ry="1.17422" transform="rotate(-4.97495 154.07 108.706)" fill="#FF8244"/>
<ellipse cx="153.96" cy="109.611" rx="1.63655" ry="0.743594" transform="rotate(-4.97495 153.96 109.611)" fill="#FF4242"/>
</g>
<defs>
<radialGradient id="paint0_radial_2153_529" cx="0" cy="0" r="1" gradientUnits="userSpaceOnUse" gradientTransform="translate(142.536 108.5) rotate(-172.679) scale(145.184 68.8476)">
<stop stop-color="#FF4242"/>
<stop offset="0.65" stop-color="#FFDF70" stop-opacity="0.7"/>
<stop offset="1" stop-color="#FFDF70" stop-opacity="0.5"/>
</radialGradient>
<linearGradient id="paint1_linear_2153_529" x1="150.457" y1="4.98095" x2="150.322" y2="98.2606" gradientUnits="userSpaceOnUse">
<stop stop-color="#17091D"/>
<stop offset="1" stop-color="#662A83"/>
</linearGradient>
<linearGradient id="paint2_linear_2153_529" x1="145.222" y1="79.6184" x2="147.635" y2="105.209" gradientUnits="userSpaceOnUse">
<stop stop-color="#E6E0F6"/>
<stop offset="1" stop-color="#BAB0D2"/>
</linearGradient>
<linearGradient id="paint3_linear_2153_529" x1="158.37" y1="78.3786" x2="160.783" y2="103.969" gradientUnits="userSpaceOnUse">
<stop stop-color="#E6E0F6"/>
<stop offset="1" stop-color="#BAB0D2"/>
</linearGradient>
<linearGradient id="paint4_linear_2153_529" x1="151.503" y1="78.244" x2="154.099" y2="105.773" gradientUnits="userSpaceOnUse">
<stop stop-color="#F3F3F3"/>
<stop offset="1" stop-color="#CAC2DE"/>
</linearGradient>
<linearGradient id="paint5_linear_2153_529" x1="151.909" y1="36.4459" x2="142.242" y2="38.1479" gradientUnits="userSpaceOnUse">
<stop stop-color="#CAC2DE"/>
<stop offset="1" stop-color="#A799C6"/>
</linearGradient>
<linearGradient id="paint6_linear_2153_529" x1="145.877" y1="45.9656" x2="154.347" y2="54.476" gradientUnits="userSpaceOnUse">
<stop stop-color="#B3A7CE"/>
<stop offset="1" stop-color="#221737"/>
</linearGradient>
<clipPath id="clip0_2153_529">
<rect width="163" height="163" fill="white"/>
</clipPath>
</defs>
</svg>
