<svg width="101" height="71" viewBox="0 0 101 71" fill="none" xmlns="http://www.w3.org/2000/svg">
<path d="M51.0604 11.8372C51.0604 11.8372 61.5243 12.1056 68.0936 17.8539C71.5783 20.903 73.8194 24.2412 75.0197 27.9056C69.7764 32.3221 64.8838 36.1115 59.8648 39.6167C59.8307 38.5442 59.5096 30.0122 57.813 24.7553C56.0646 19.338 51.0604 11.8372 51.0604 11.8372Z" fill="#221737"/>
<path d="M59.7373 39.7057C59.1786 39.6222 56.9353 39.432 55.0239 41.3434C54.1292 42.2381 53.6571 43.1191 53.4331 43.9118C55.5788 42.5415 57.6691 41.1475 59.7373 39.7057Z" fill="#221737"/>
<path d="M47.598 47.5016C45.2831 47.5756 42.7085 47.5421 40.6378 47.2153C32.1785 45.8801 28.0132 40.169 28.0132 40.169C28.0132 40.169 30.1024 48.3714 35.0595 52.7936C35.4701 53.1599 35.876 53.5125 36.2785 53.8514C40.3399 51.6812 44.0714 49.5946 47.598 47.5016Z" fill="#221737"/>
<path d="M39.6746 56.4126C43.5283 58.9449 47.4603 60.1529 52.8219 59.9866C59.6989 59.7733 64.5196 57.8053 69.3848 52.9404C73.7543 48.5711 75.1247 44.8352 75.8691 38.701C76.1339 36.5182 76.1765 34.4285 75.9699 32.4273C71.0552 36.3794 66.282 39.9737 61.596 43.2374C62.0255 43.7971 62.2807 44.4975 62.2807 45.2574C62.2807 47.0919 60.7935 48.5791 58.959 48.5791C57.7394 48.5791 56.6732 47.9217 56.0956 46.9419C50.5588 50.5417 45.1162 53.683 39.6746 56.4126Z" fill="#221737"/>
<path d="M57.8362 45.7973C58.0374 46.2148 58.4646 46.503 58.9591 46.503C59.647 46.503 60.2047 45.9453 60.2047 45.2574C60.2047 44.9348 60.0821 44.6409 59.881 44.4197C59.1977 44.8859 58.5162 45.345 57.8362 45.7973Z" fill="#221737"/>
<path d="M49.299 11.8372C49.299 11.8372 41.1675 13.2865 35.3533 19.6174C28.7473 26.8104 30.2154 37.6735 30.2154 37.6735C30.2154 37.6735 33.924 42.0079 36.9532 43.5965C41.9209 46.2017 49.299 46.2953 49.299 46.2953C49.299 46.2953 44.496 47.0629 37.9912 45.2573C32.1741 43.6426 27.7198 38.4075 27.7198 38.4075C27.7198 38.4075 26.2303 26.9364 34.3257 18.5899C40.2749 12.4561 49.299 11.8372 49.299 11.8372Z" fill="#221737"/>
<path fill-rule="evenodd" clip-rule="evenodd" d="M97.2446 3.23913C97.2488 3.24541 97.2747 3.2838 97.2922 3.39783C97.3117 3.52504 97.3198 3.74747 97.2616 4.0905C97.1411 4.80063 96.7746 5.80918 96.0339 7.13C94.5564 9.7646 91.8924 13.1145 88.1331 16.9685C86.9138 18.2186 85.5904 19.5104 84.1707 20.8358C81.9852 16.1868 78.8087 12.0896 74.9109 8.81189C77.0277 7.85819 79.0526 7.00713 80.9687 6.26499C86.0026 4.3153 90.1444 3.17319 93.1627 2.84049C94.6759 2.6737 95.7542 2.72867 96.4602 2.89327C96.8012 2.97279 97.0046 3.06633 97.1152 3.13341C97.2143 3.19352 97.2404 3.2328 97.2446 3.23913ZM19.2157 35.7353C19.2157 37.4116 19.3435 39.0584 19.5899 40.6666C19.7874 42.0464 20.0361 43.2847 20.5188 44.8468C22.0377 50.0234 24.8178 54.6672 28.5074 58.4276C31.7418 56.877 35.1547 55.113 38.6929 53.1552C47.6345 49.1416 68.3347 35.0213 72.9702 30.5539C75.892 28.2215 79.571 25.0003 82.034 22.7905C79.9001 17.9129 76.597 13.6557 72.4755 10.368C71.1928 9.31007 70.2408 8.68352 68.9974 7.94345C64.037 4.942 58.2094 3.21266 51.9737 3.21266C33.8759 3.21266 19.2157 17.7795 19.2157 35.7353ZM72.4502 6.91933C66.6636 2.85723 59.5993 0.470589 51.9737 0.470589C32.3604 0.470589 16.4607 16.2591 16.4607 35.7353C16.4607 38.2423 16.7242 40.6882 17.2251 43.0472C4.82225 53.984 -2.00998 63.2909 0.523952 67.0765C2.98174 70.7484 13.6741 68.3637 27.9632 61.7187C34.2847 67.482 42.7155 71 51.9737 71C71.587 71 87.4867 55.2115 87.4867 35.7353C87.4867 31.4462 86.7156 27.336 85.3036 23.5338C96.1324 13.5692 101.901 5.25021 99.5404 1.72335C97.1026 -1.91859 86.5641 0.397653 72.4502 6.91933ZM75.4245 31.9521C78.1659 29.77 80.7291 27.6214 83.0875 25.5333C84.1544 28.7423 84.7318 32.1721 84.7318 35.7353C84.7318 53.691 70.0715 68.2579 51.9737 68.2579C43.8337 68.2579 36.389 65.311 30.661 60.4342C33.7157 58.9468 36.913 57.2806 40.2113 55.4517C52.5509 49.6371 72.9715 33.9045 75.4245 31.9521ZM25.8812 59.6577C22.3035 55.8117 19.5773 51.1729 17.9999 46.0367C15.7659 48.0421 13.7348 49.9824 11.9312 51.8314C8.17194 55.6854 5.50793 59.0353 4.03045 61.6699C3.28973 62.9907 2.92328 63.9992 2.80277 64.7094C2.74456 65.0524 2.75267 65.2748 2.77214 65.402C2.78959 65.5161 2.81549 65.5545 2.81973 65.5607C2.82392 65.5671 2.85001 65.6063 2.94913 65.6665C3.05971 65.7336 3.26309 65.8271 3.60414 65.9066C4.31015 66.0712 5.38847 66.1262 6.90163 65.9594C9.91989 65.6267 14.0617 64.4846 19.0956 62.5349C21.2302 61.7081 23.4999 60.7462 25.8812 59.6577ZM62.9497 41.2438C63.2445 41.0333 63.6991 40.7083 63.9535 40.5258L63.5392 40.8228L62.9497 41.2438Z" fill="#221737"/>
</svg>
